<svg width="583" height="818" viewBox="0 0 583 818" fill="none" xmlns="http://www.w3.org/2000/svg">
<g filter="url(#filter0_b_127_7113)">
<rect x="176" y="115.875" width="390" height="702.125" fill="#0194AC"/>
</g>
<path d="M0 116.857V42.1409H6.04512V33.0919H15.7692V41.8818H25.7566V111.169H29.6989H33.9038V92.5544H44.1538V86.8669H54.6663V91.7788H58.8712V82.2132H75.6914V76.5257H82.525V81.4376H86.7298V50.6725H91.198V38.0046L93.826 35.9361L96.7172 38.0046V49.1213H99.6085V43.1748H112.289V49.2501H115.837V101.603H117.611V59.5268H125.693V51.5769H137.914V57.9756H139.885V112.85H170.438V103.155H172.804V14.5426H175.957V11.2463H181.871V0H188.77V1.55121H193.304V10.6646H196.457V81.2445H202.962V75.8153H210.255V72.9068H223.068V109.554H229.967V68.8349H238.246V62.0483H249.678V67.6714H253.029V112.85H259.337V49.057H266.433V39.5558H278.654V48.2813H280.626V81.8262H285.751V68.0593H291.073V59.3337L294.621 57.2008L297.577 59.3337V67.0897H307.827V86.6737H310.193V37.0351H332.467V108.972H340.351V92.2969H344.885V81.2445H349.024V72.9068H357.5V81.8262H366.765V111.881H371.298V68.0593H392.981V111.881H400.866V15.706H410.524V0.775604H421.563V15.3182H424.125V112.075H426.096V68.2532H450.144V109.36H457.635V102.574H470.644V105.676H480.303V114.208H484.442V67.4775L491.243 60.788H503.563V100.053H508.885V107.421H537.072V112.85H541.212V92.103H552.053V86.6737H562.894V90.7457H567.231V47.8935H572.553V43.6277H577.087H583V116.147C583 116.147 0.0654422 116.793 0 116.857Z" fill="#0194AC"/>
<defs>
<filter id="filter0_b_127_7113" x="156" y="95.875" width="430" height="742.125" filterUnits="userSpaceOnUse" color-interpolation-filters="sRGB">
<feFlood flood-opacity="0" result="BackgroundImageFix"/>
<feGaussianBlur in="BackgroundImageFix" stdDeviation="10"/>
<feComposite in2="SourceAlpha" operator="in" result="effect1_backgroundBlur_127_7113"/>
<feBlend mode="normal" in="SourceGraphic" in2="effect1_backgroundBlur_127_7113" result="shape"/>
</filter>
</defs>
</svg>
