<svg width="20" height="20" viewBox="0 0 20 20" fill="none" xmlns="http://www.w3.org/2000/svg">
<path d="M7.49992 8.95833C6.23325 8.95833 5.20825 7.93333 5.20825 6.66667C5.20825 5.4 6.23325 4.375 7.49992 4.375C8.76659 4.375 9.79159 5.4 9.79159 6.66667C9.79159 7.93333 8.76659 8.95833 7.49992 8.95833ZM7.49992 5.625C6.92492 5.625 6.45825 6.09167 6.45825 6.66667C6.45825 7.24167 6.92492 7.70833 7.49992 7.70833C8.07492 7.70833 8.54159 7.24167 8.54159 6.66667C8.54159 6.09167 8.07492 5.625 7.49992 5.625Z" fill="#1B76EC"/>
<path d="M12.5001 18.9583H7.50008C2.97508 18.9583 1.04175 17.025 1.04175 12.5V7.5C1.04175 2.975 2.97508 1.04167 7.50008 1.04167H10.8334C11.1751 1.04167 11.4584 1.325 11.4584 1.66667C11.4584 2.00833 11.1751 2.29167 10.8334 2.29167H7.50008C3.65841 2.29167 2.29175 3.65833 2.29175 7.5V12.5C2.29175 16.3417 3.65841 17.7083 7.50008 17.7083H12.5001C16.3417 17.7083 17.7084 16.3417 17.7084 12.5V8.33333C17.7084 7.99167 17.9917 7.70833 18.3334 7.70833C18.6751 7.70833 18.9584 7.99167 18.9584 8.33333V12.5C18.9584 17.025 17.0251 18.9583 12.5001 18.9583Z" fill="#1B76EC"/>
<path d="M17.7083 4.79167H13.125C12.7833 4.79167 12.5 4.50833 12.5 4.16667C12.5 3.825 12.7833 3.54167 13.125 3.54167H17.7083C18.05 3.54167 18.3333 3.825 18.3333 4.16667C18.3333 4.50833 18.05 4.79167 17.7083 4.79167Z" fill="#1B76EC"/>
<path d="M15.4167 7.08333C15.0751 7.08333 14.7917 6.8 14.7917 6.45833V1.875C14.7917 1.53333 15.0751 1.25 15.4167 1.25C15.7584 1.25 16.0417 1.53333 16.0417 1.875V6.45833C16.0417 6.8 15.7584 7.08333 15.4167 7.08333Z" fill="#1B76EC"/>
<path d="M2.22492 16.4167C2.02492 16.4167 1.82492 16.3167 1.70825 16.1417C1.51659 15.8584 1.59159 15.4667 1.87492 15.275L5.98325 12.5167C6.88325 11.9167 8.12492 11.9834 8.94158 12.675L9.21659 12.9167C9.63325 13.275 10.3416 13.275 10.7499 12.9167L14.2166 9.94172C15.1083 9.18338 16.4916 9.18338 17.3833 9.94172L18.7416 11.1084C18.9999 11.3334 19.0333 11.7251 18.8083 11.9917C18.5833 12.2501 18.1916 12.2834 17.9249 12.0584L16.5666 10.8917C16.1499 10.5334 15.4416 10.5334 15.0333 10.8917L11.5666 13.8667C10.6833 14.625 9.29158 14.625 8.39992 13.8667L8.12492 13.625C7.74159 13.3 7.10825 13.2667 6.68325 13.5584L2.58325 16.3167C2.46659 16.3834 2.34159 16.4167 2.22492 16.4167Z" fill="#1B76EC"/>
</svg>
