<svg width="61" height="61" viewBox="0 0 61 61" fill="none" xmlns="http://www.w3.org/2000/svg">
<path d="M0 7.92C0 3.5459 3.54591 0 7.92 0H52.272C56.6461 0 60.192 3.54591 60.192 7.92V52.272C60.192 56.6461 56.6461 60.192 52.272 60.192H7.92C3.5459 60.192 0 56.6461 0 52.272V7.92Z" fill="#84B9FF" fill-opacity="0.2"/>
<path fill-rule="evenodd" clip-rule="evenodd" d="M20.1959 18.2971C20.1959 18.0565 20.3002 17.8256 20.4858 17.6554C20.6715 17.4853 20.9233 17.3896 21.1859 17.3896H39.0059C39.2684 17.3896 39.5202 17.4853 39.7059 17.6554C39.8916 17.8256 39.9959 18.0565 39.9959 18.2971V28.2796H38.0159V19.2046H22.1759V40.9846H27.1259V42.7996H21.1859C20.9233 42.7996 20.6715 42.704 20.4858 42.5338C20.3002 42.3637 20.1959 42.1328 20.1959 41.8921V18.2971ZM36.0359 24.6496H24.1559V22.8346H36.0359V24.6496ZM32.0759 28.2796H24.1559V26.4646H32.0759V28.2796ZM34.0559 31.9096C33.0056 31.9096 31.9984 32.2921 31.2557 32.9729C30.5131 33.6536 30.0959 34.5769 30.0959 35.5396C30.0959 36.5024 30.5131 37.4257 31.2557 38.1064C31.9984 38.7872 33.0056 39.1696 34.0559 39.1696C35.1061 39.1696 36.1134 38.7872 36.856 38.1064C37.5986 37.4257 38.0159 36.5024 38.0159 35.5396C38.0159 34.5769 37.5986 33.6536 36.856 32.9729C36.1134 32.2921 35.1061 31.9096 34.0559 31.9096ZM28.1159 35.5396C28.1157 34.6827 28.3363 33.8378 28.7595 33.0737C29.1828 32.3096 29.7968 31.6479 30.5517 31.1424C31.3065 30.6368 32.1809 30.3018 33.1036 30.1644C34.0264 30.027 34.9715 30.0912 35.8621 30.3518C36.7527 30.6124 37.5636 31.062 38.2289 31.664C38.8942 32.266 39.3951 33.0035 39.6908 33.8164C39.9865 34.6294 40.0688 35.4948 39.9308 36.3424C39.7929 37.1899 39.4387 37.9957 38.897 38.6941L41.6868 41.2496L40.2849 42.5347L37.4971 39.9773C36.6085 40.5563 35.5632 40.8999 34.4758 40.9705C33.3884 41.0412 32.3007 40.8361 31.3319 40.3779C30.3631 39.9196 29.5506 39.2258 28.9833 38.3724C28.4161 37.519 28.116 36.539 28.1159 35.5396Z" fill="#0066EB"/>
</svg>
