<svg width="40" height="40" viewBox="0 0 40 40" fill="none" xmlns="http://www.w3.org/2000/svg">
<circle cx="20" cy="20" r="20" fill="#E4FBF1"/>
<path d="M23.4999 13.3333H25.1665C25.6086 13.3333 26.0325 13.5089 26.3451 13.8214C26.6576 14.134 26.8332 14.5579 26.8332 15V26.6666C26.8332 27.1087 26.6576 27.5326 26.3451 27.8451C26.0325 28.1577 25.6086 28.3333 25.1665 28.3333H15.1665C14.7245 28.3333 14.3006 28.1577 13.988 27.8451C13.6755 27.5326 13.4999 27.1087 13.4999 26.6666V15C13.4999 14.5579 13.6755 14.134 13.988 13.8214C14.3006 13.5089 14.7245 13.3333 15.1665 13.3333H16.8332M17.6665 11.6666H22.6665C23.1268 11.6666 23.4999 12.0397 23.4999 12.5V14.1666C23.4999 14.6269 23.1268 15 22.6665 15H17.6665C17.2063 15 16.8332 14.6269 16.8332 14.1666V12.5C16.8332 12.0397 17.2063 11.6666 17.6665 11.6666Z" stroke="#39C687" stroke-width="2" stroke-linecap="round" stroke-linejoin="round"/>
</svg>
