<svg width="20" height="20" viewBox="0 0 20 20" fill="none" xmlns="http://www.w3.org/2000/svg">
<path d="M16.6667 5.86669V14.1334C16.6667 15.4 16.55 16.3 16.25 16.9417C16.25 16.95 16.2417 16.9667 16.2333 16.975C16.05 17.2084 15.8083 17.325 15.525 17.325C15.0833 17.325 14.55 17.0334 13.975 16.4167C13.2917 15.6834 12.2416 15.7417 11.6416 16.5417L10.8 17.6584C10.4667 18.1084 10.025 18.3334 9.58333 18.3334C9.14167 18.3334 8.69998 18.1084 8.36665 17.6584L7.51668 16.5334C6.92502 15.7417 5.88333 15.6834 5.19999 16.4084L5.19165 16.4167C4.24998 17.425 3.41668 17.575 2.93335 16.975C2.92502 16.9667 2.91667 16.95 2.91667 16.9417C2.61667 16.3 2.5 15.4 2.5 14.1334V5.86669C2.5 4.60002 2.61667 3.70002 2.91667 3.05835C2.91667 3.05002 2.91668 3.04169 2.93335 3.03335C3.40835 2.42502 4.24998 2.57502 5.19165 3.58335L5.19999 3.59169C5.88333 4.31669 6.92502 4.25835 7.51668 3.46669L8.36665 2.34169C8.69998 1.89169 9.14167 1.66669 9.58333 1.66669C10.025 1.66669 10.4667 1.89169 10.8 2.34169L11.6416 3.45836C12.2416 4.25836 13.2917 4.31669 13.975 3.58335C14.55 2.96669 15.0833 2.67502 15.525 2.67502C15.8083 2.67502 16.05 2.80002 16.2333 3.03335C16.25 3.04169 16.25 3.05002 16.25 3.05835C16.55 3.70002 16.6667 4.60002 16.6667 5.86669Z" stroke="#0066EB" stroke-width="1.5" stroke-linecap="round" stroke-linejoin="round"/>
<path d="M6.66663 8.54169H13.3333" stroke="#0066EB" stroke-width="1.5" stroke-linecap="round" stroke-linejoin="round"/>
<path d="M6.66663 11.4583H11.6666" stroke="#0066EB" stroke-width="1.5" stroke-linecap="round" stroke-linejoin="round"/>
</svg>
