<svg width="40" height="40" viewBox="0 0 40 40" fill="none" xmlns="http://www.w3.org/2000/svg">
<circle cx="20" cy="20" r="20" fill="#FFF0F0"/>
<path d="M28.1751 23.2416C27.6449 24.4954 26.8157 25.6001 25.7599 26.4594C24.7042 27.3186 23.454 27.9061 22.1187 28.1706C20.7835 28.4351 19.4037 28.3684 18.1002 27.9765C16.7966 27.5845 15.6089 26.8792 14.6409 25.9222C13.6729 24.9652 12.9541 23.7856 12.5472 22.4866C12.1404 21.1876 12.058 19.8087 12.3072 18.4705C12.5564 17.1323 13.1296 15.8755 13.9768 14.81C14.8239 13.7445 15.9191 12.9027 17.1667 12.3583M28.8334 20C28.8334 18.9056 28.6178 17.822 28.199 16.8109C27.7803 15.7999 27.1664 14.8812 26.3926 14.1074C25.6188 13.3336 24.7001 12.7198 23.6891 12.301C22.678 11.8822 21.5944 11.6666 20.5001 11.6666V20H28.8334Z" stroke="#F25A5A" stroke-width="2" stroke-linecap="round" stroke-linejoin="round"/>
</svg>
