<svg width="20" height="20" viewBox="0 0 20 20" fill="none" xmlns="http://www.w3.org/2000/svg">
<path d="M12.9834 9.99993C12.9834 11.6499 11.6501 12.9833 10.0001 12.9833C8.35006 12.9833 7.01672 11.6499 7.01672 9.99993C7.01672 8.34993 8.35006 7.0166 10.0001 7.0166C11.6501 7.0166 12.9834 8.34993 12.9834 9.99993Z" stroke="#84B9FF" stroke-width="1.5" stroke-linecap="round" stroke-linejoin="round"/>
<path d="M9.99999 16.8918C12.9417 16.8918 15.6833 15.1584 17.5917 12.1584C18.3417 10.9834 18.3417 9.00843 17.5917 7.83343C15.6833 4.83343 12.9417 3.1001 9.99999 3.1001C7.05833 3.1001 4.31666 4.83343 2.40833 7.83343C1.65833 9.00843 1.65833 10.9834 2.40833 12.1584C4.31666 15.1584 7.05833 16.8918 9.99999 16.8918Z" stroke="#1B76EC" stroke-width="1.5" stroke-linecap="round" stroke-linejoin="round"/>
</svg>
