<svg width="32" height="32" viewBox="0 0 32 32" fill="none" xmlns="http://www.w3.org/2000/svg">
<circle cx="16" cy="16" r="15.5" fill="#47C28B" stroke="#FEFEFE"/>
<mask id="path-2-inside-1_30_4162" fill="white">
<path d="M23.2 17C23.6418 17 24.0041 17.3591 23.96 17.7987C23.8821 18.5753 23.6908 19.3377 23.391 20.0615C22.989 21.0321 22.3997 21.914 21.6569 22.6569C20.914 23.3997 20.0321 23.989 19.0615 24.391C18.0909 24.7931 17.0506 25 16 25C14.9494 25 13.9091 24.7931 12.9385 24.391C11.9679 23.989 11.086 23.3997 10.3431 22.6569C9.60028 21.914 9.011 21.0321 8.60896 20.0615C8.30919 19.3377 8.11789 18.5753 8.03997 17.7987C7.99586 17.3591 8.35817 17 8.8 17V17C9.24183 17 9.59485 17.3595 9.64994 17.7979C9.72109 18.3642 9.86784 18.9197 10.0872 19.4492C10.4088 20.2257 10.8802 20.9312 11.4745 21.5255C12.0688 22.1198 12.7743 22.5912 13.5508 22.9128C14.3273 23.2345 15.1595 23.4 16 23.4C16.8405 23.4 17.6727 23.2345 18.4492 22.9128C19.2257 22.5912 19.9312 22.1198 20.5255 21.5255C21.1198 20.9312 21.5912 20.2257 21.9128 19.4492C22.1322 18.9197 22.2789 18.3642 22.3501 17.7979C22.4052 17.3595 22.7582 17 23.2 17V17Z"/>
</mask>
<path d="M23.2 17C23.6418 17 24.0041 17.3591 23.96 17.7987C23.8821 18.5753 23.6908 19.3377 23.391 20.0615C22.989 21.0321 22.3997 21.914 21.6569 22.6569C20.914 23.3997 20.0321 23.989 19.0615 24.391C18.0909 24.7931 17.0506 25 16 25C14.9494 25 13.9091 24.7931 12.9385 24.391C11.9679 23.989 11.086 23.3997 10.3431 22.6569C9.60028 21.914 9.011 21.0321 8.60896 20.0615C8.30919 19.3377 8.11789 18.5753 8.03997 17.7987C7.99586 17.3591 8.35817 17 8.8 17V17C9.24183 17 9.59485 17.3595 9.64994 17.7979C9.72109 18.3642 9.86784 18.9197 10.0872 19.4492C10.4088 20.2257 10.8802 20.9312 11.4745 21.5255C12.0688 22.1198 12.7743 22.5912 13.5508 22.9128C14.3273 23.2345 15.1595 23.4 16 23.4C16.8405 23.4 17.6727 23.2345 18.4492 22.9128C19.2257 22.5912 19.9312 22.1198 20.5255 21.5255C21.1198 20.9312 21.5912 20.2257 21.9128 19.4492C22.1322 18.9197 22.2789 18.3642 22.3501 17.7979C22.4052 17.3595 22.7582 17 23.2 17V17Z" fill="#065202" stroke="#065202" mask="url(#path-2-inside-1_30_4162)"/>
<path d="M7.20001 12V14.4" stroke="#065202" stroke-width="2" stroke-linecap="round"/>
<path d="M24.8 12V14.4" stroke="#065202" stroke-width="2" stroke-linecap="round"/>
</svg>
