<svg width="20" height="20" viewBox="0 0 20 20" fill="none" xmlns="http://www.w3.org/2000/svg">
<path d="M16.1419 4.0751L11.2586 1.9001C10.5419 1.58343 9.45856 1.58343 8.74189 1.9001L3.85856 4.0751C2.62523 4.6251 2.44189 5.3751 2.44189 5.7751C2.44189 6.1751 2.62523 6.9251 3.85856 7.4751L8.74189 9.6501C9.10023 9.80843 9.55023 9.89176 10.0002 9.89176C10.4502 9.89176 10.9002 9.80843 11.2586 9.6501L16.1419 7.4751C17.3752 6.9251 17.5586 6.1751 17.5586 5.7751C17.5586 5.3751 17.3836 4.6251 16.1419 4.0751Z" fill="#1B76EC"/>
<path d="M9.99977 14.1998C9.68311 14.1998 9.36644 14.1332 9.07477 14.0082L3.45811 11.5082C2.59977 11.1248 1.93311 10.0998 1.93311 9.15817C1.93311 8.8165 2.20811 8.5415 2.54977 8.5415C2.89144 8.5415 3.16644 8.8165 3.16644 9.15817C3.16644 9.60817 3.54144 10.1915 3.95811 10.3748L9.57477 12.8748C9.84144 12.9915 10.1498 12.9915 10.4164 12.8748L16.0331 10.3748C16.4498 10.1915 16.8248 9.6165 16.8248 9.15817C16.8248 8.8165 17.0998 8.5415 17.4414 8.5415C17.7831 8.5415 18.0581 8.8165 18.0581 9.15817C18.0581 10.0915 17.3914 11.1248 16.5331 11.5082L10.9164 14.0082C10.6331 14.1332 10.3164 14.1998 9.99977 14.1998Z" fill="#1B76EC"/>
<path d="M9.99977 18.3331C9.68311 18.3331 9.36644 18.2665 9.07477 18.1415L3.45811 15.6415C2.53311 15.2331 1.93311 14.3081 1.93311 13.2915C1.93311 12.9498 2.20811 12.6748 2.54977 12.6748C2.89144 12.6748 3.16644 12.9498 3.16644 13.2915C3.16644 13.8165 3.47477 14.2915 3.95811 14.5081L9.57477 17.0081C9.84144 17.1248 10.1498 17.1248 10.4164 17.0081L16.0331 14.5081C16.5081 14.2998 16.8248 13.8165 16.8248 13.2915C16.8248 12.9498 17.0998 12.6748 17.4414 12.6748C17.7831 12.6748 18.0581 12.9498 18.0581 13.2915C18.0581 14.3081 17.4581 15.2248 16.5331 15.6415L10.9164 18.1415C10.6331 18.2665 10.3164 18.3331 9.99977 18.3331Z" fill="#1B76EC"/>
</svg>
