<svg width="20" height="20" viewBox="0 0 20 20" fill="none" xmlns="http://www.w3.org/2000/svg">
<path d="M14.1665 2.9165H5.83317C3.33317 2.9165 1.6665 4.1665 1.6665 7.08317V12.9165C1.6665 15.8332 3.33317 17.0832 5.83317 17.0832H14.1665C16.6665 17.0832 18.3332 15.8332 18.3332 12.9165V7.08317C18.3332 4.1665 16.6665 2.9165 14.1665 2.9165ZM6.6665 14.7915H4.1665C3.82484 14.7915 3.5415 14.5082 3.5415 14.1665C3.5415 13.8248 3.82484 13.5415 4.1665 13.5415H6.6665C7.00817 13.5415 7.2915 13.8248 7.2915 14.1665C7.2915 14.5082 7.00817 14.7915 6.6665 14.7915ZM9.99984 12.4998C8.6165 12.4998 7.49984 11.3832 7.49984 9.99984C7.49984 8.6165 8.6165 7.49984 9.99984 7.49984C11.3832 7.49984 12.4998 8.6165 12.4998 9.99984C12.4998 11.3832 11.3832 12.4998 9.99984 12.4998ZM15.8332 6.45817H13.3332C12.9915 6.45817 12.7082 6.17484 12.7082 5.83317C12.7082 5.4915 12.9915 5.20817 13.3332 5.20817H15.8332C16.1748 5.20817 16.4582 5.4915 16.4582 5.83317C16.4582 6.17484 16.1748 6.45817 15.8332 6.45817Z" fill="#1B76EC"/>
</svg>
