<svg width="20" height="20" viewBox="0 0 20 20" fill="none" xmlns="http://www.w3.org/2000/svg">
<path d="M15.8335 6.6665C17.2142 6.6665 18.3335 5.54722 18.3335 4.1665C18.3335 2.78579 17.2142 1.6665 15.8335 1.6665C14.4528 1.6665 13.3335 2.78579 13.3335 4.1665C13.3335 5.54722 14.4528 6.6665 15.8335 6.6665Z" fill="#1B76EC"/>
<path d="M16.4998 7.85C16.4832 7.85 16.4665 7.85833 16.4498 7.85833C16.3665 7.875 16.2832 7.88333 16.1915 7.9C15.8415 7.93333 15.4665 7.91667 15.0832 7.84167C14.9832 7.81667 14.8998 7.8 14.8082 7.76667C14.5332 7.7 14.2748 7.59167 14.0332 7.45C13.9332 7.4 13.8332 7.33333 13.7415 7.275C13.3415 7 12.9998 6.65833 12.7248 6.25833C12.6665 6.16667 12.5998 6.06667 12.5498 5.96667C12.4082 5.725 12.2998 5.46667 12.2332 5.19167C12.1998 5.1 12.1832 5.01667 12.1582 4.91667C12.0832 4.53333 12.0665 4.15833 12.0998 3.80833C12.1165 3.71667 12.1248 3.63333 12.1415 3.55C12.1415 3.53333 12.1498 3.51667 12.1498 3.5C12.2498 2.98333 11.8665 2.5 11.3332 2.5H6.2665C6.14984 2.5 6.03317 2.50833 5.92484 2.51667C5.82484 2.525 5.73317 2.53333 5.63317 2.55C5.53317 2.55833 5.43317 2.575 5.3415 2.59167C3.33317 2.88333 2.04984 4.15833 1.75817 6.175C1.7415 6.26667 1.72484 6.36667 1.7165 6.46667C1.69984 6.56667 1.6915 6.65833 1.68317 6.75833C1.67484 6.86667 1.6665 6.98333 1.6665 7.1V13.7333C1.6665 13.85 1.67484 13.9667 1.68317 14.075C1.6915 14.175 1.69984 14.2667 1.7165 14.3667C1.72484 14.4667 1.7415 14.5667 1.75817 14.6583C2.04984 16.675 3.33317 17.95 5.3415 18.2417C5.43317 18.2583 5.53317 18.275 5.63317 18.2833C5.73317 18.3 5.82484 18.3083 5.92484 18.3167C6.03317 18.325 6.14984 18.3333 6.2665 18.3333H12.8998C13.0165 18.3333 13.1332 18.325 13.2415 18.3167C13.3415 18.3083 13.4332 18.3 13.5332 18.2833C13.6332 18.275 13.7332 18.2583 13.8248 18.2417C15.8332 17.95 17.1165 16.675 17.4082 14.6583C17.4248 14.5667 17.4415 14.4667 17.4498 14.3667C17.4665 14.2667 17.4748 14.175 17.4832 14.075C17.4915 13.9667 17.4998 13.85 17.4998 13.7333V8.66667C17.4998 8.13333 17.0165 7.75 16.4998 7.85ZM5.62484 10.4167H9.7915C10.1332 10.4167 10.4165 10.7 10.4165 11.0417C10.4165 11.3833 10.1332 11.6667 9.7915 11.6667H5.62484C5.28317 11.6667 4.99984 11.3833 4.99984 11.0417C4.99984 10.7 5.28317 10.4167 5.62484 10.4167ZM13.1248 15H5.62484C5.28317 15 4.99984 14.7167 4.99984 14.375C4.99984 14.0333 5.28317 13.75 5.62484 13.75H13.1248C13.4665 13.75 13.7498 14.0333 13.7498 14.375C13.7498 14.7167 13.4665 15 13.1248 15Z" fill="#1B76EC"/>
</svg>
