<svg width="18" height="18" viewBox="0 0 18 18" fill="none" xmlns="http://www.w3.org/2000/svg">
<path d="M12 1.5H6C3 1.5 1.5 3 1.5 6V15.75C1.5 16.1625 1.8375 16.5 2.25 16.5H12C15 16.5 16.5 15 16.5 12V6C16.5 3 15 1.5 12 1.5ZM10.5 11.4375H5.25C4.9425 11.4375 4.6875 11.1825 4.6875 10.875C4.6875 10.5675 4.9425 10.3125 5.25 10.3125H10.5C10.8075 10.3125 11.0625 10.5675 11.0625 10.875C11.0625 11.1825 10.8075 11.4375 10.5 11.4375ZM12.75 7.6875H5.25C4.9425 7.6875 4.6875 7.4325 4.6875 7.125C4.6875 6.8175 4.9425 6.5625 5.25 6.5625H12.75C13.0575 6.5625 13.3125 6.8175 13.3125 7.125C13.3125 7.4325 13.0575 7.6875 12.75 7.6875Z" fill="#1B76EC"/>
</svg>
