<svg width="20" height="20" viewBox="0 0 20 20" fill="none" xmlns="http://www.w3.org/2000/svg">
<path d="M13.4915 1.6665H6.50817C3.47484 1.6665 1.6665 3.47484 1.6665 6.50817V13.4832C1.6665 16.5248 3.47484 18.3332 6.50817 18.3332H13.4832C16.5165 18.3332 18.3248 16.5248 18.3248 13.4915V6.50817C18.3332 3.47484 16.5248 1.6665 13.4915 1.6665ZM6.8165 13.9748C6.79984 13.9748 6.77484 13.9748 6.75817 13.9748C5.94984 13.8998 5.1915 13.5248 4.62484 12.9248C3.2915 11.5248 3.2915 9.24984 4.62484 7.84984L6.44984 5.93317C7.09984 5.24984 7.97484 4.8665 8.90817 4.8665C9.8415 4.8665 10.7165 5.2415 11.3665 5.93317C12.6998 7.33317 12.6998 9.60817 11.3665 11.0082L10.4582 11.9665C10.2165 12.2165 9.82484 12.2248 9.57484 11.9915C9.32484 11.7498 9.3165 11.3582 9.54984 11.1082L10.4582 10.1498C11.3415 9.22484 11.3415 7.7165 10.4582 6.79984C9.63317 5.93317 8.18317 5.93317 7.34984 6.79984L5.52484 8.7165C4.6415 9.6415 4.6415 11.1498 5.52484 12.0665C5.88317 12.4498 6.3665 12.6832 6.87484 12.7332C7.2165 12.7665 7.4665 13.0748 7.43317 13.4165C7.40817 13.7332 7.13317 13.9748 6.8165 13.9748ZM15.3748 12.1582L13.5498 14.0748C12.8998 14.7582 12.0248 15.1415 11.0915 15.1415C10.1582 15.1415 9.28317 14.7665 8.63317 14.0748C7.29984 12.6748 7.29984 10.3998 8.63317 8.99984L9.5415 8.0415C9.78317 7.7915 10.1748 7.78317 10.4248 8.0165C10.6748 8.25817 10.6832 8.64984 10.4498 8.89984L9.5415 9.85817C8.65817 10.7832 8.65817 12.2915 9.5415 13.2082C10.3665 14.0748 11.8165 14.0832 12.6498 13.2082L14.4748 11.2915C15.3582 10.3665 15.3582 8.85817 14.4748 7.9415C14.1165 7.55817 13.6332 7.32484 13.1248 7.27484C12.7832 7.2415 12.5332 6.93317 12.5665 6.5915C12.5998 6.24984 12.8998 5.9915 13.2498 6.03317C14.0582 6.1165 14.8165 6.48317 15.3832 7.08317C16.7082 8.47484 16.7082 10.7582 15.3748 12.1582Z" fill="#0066EB"/>
</svg>
