<svg width="18" height="18" viewBox="0 0 18 18" fill="none" xmlns="http://www.w3.org/2000/svg">
<path d="M16.5 8.30258V12.4876C16.5 14.7001 14.7 16.5001 12.4875 16.5001H5.5125C3.3 16.5001 1.5 14.7001 1.5 12.4876V7.08008H16.305C16.4175 7.41758 16.4775 7.76258 16.4925 8.13008C16.5 8.18258 16.5 8.25008 16.5 8.30258Z" fill="#1B76EC"/>
<path d="M16.305 7.08H1.5V4.815C1.5 2.985 2.985 1.5 4.815 1.5H6.5625C7.785 1.5 8.1675 1.8975 8.655 2.55L9.705 3.945C9.9375 4.2525 9.9675 4.2975 10.4025 4.2975H12.495C14.2725 4.29 15.7875 5.46 16.305 7.08Z" fill="#1B76EC"/>
</svg>
