<svg width="24" height="24" viewBox="0 0 24 24" fill="none" xmlns="http://www.w3.org/2000/svg">
<mask id="path-1-inside-1_27_3861" fill="white">
<path d="M18.32 12.75H15C12.51 12.75 11.25 11.34 11.25 8.54996V5.67996C11.25 4.65996 11.37 3.19996 12.43 2.39996C13.32 1.73996 14.6 1.68996 16.49 2.23996C18.97 2.95996 21.04 5.02996 21.76 7.50996C22.31 9.38996 22.26 10.68 21.6 11.56C20.8 12.63 19.34 12.75 18.32 12.75ZM14.28 3.35996C13.87 3.35996 13.55 3.43996 13.34 3.59996C12.95 3.88996 12.76 4.56996 12.76 5.67996V8.55996C12.76 10.8 13.62 11.26 15.01 11.26H18.33C19.43 11.26 20.11 11.07 20.41 10.68C20.76 10.22 20.73 9.29996 20.34 7.94996C19.76 5.97996 18.06 4.26996 16.09 3.69996C15.35 3.46996 14.75 3.35996 14.28 3.35996Z"/>
</mask>
<path d="M18.32 12.75H15C12.51 12.75 11.25 11.34 11.25 8.54996V5.67996C11.25 4.65996 11.37 3.19996 12.43 2.39996C13.32 1.73996 14.6 1.68996 16.49 2.23996C18.97 2.95996 21.04 5.02996 21.76 7.50996C22.31 9.38996 22.26 10.68 21.6 11.56C20.8 12.63 19.34 12.75 18.32 12.75ZM14.28 3.35996C13.87 3.35996 13.55 3.43996 13.34 3.59996C12.95 3.88996 12.76 4.56996 12.76 5.67996V8.55996C12.76 10.8 13.62 11.26 15.01 11.26H18.33C19.43 11.26 20.11 11.07 20.41 10.68C20.76 10.22 20.73 9.29996 20.34 7.94996C19.76 5.97996 18.06 4.26996 16.09 3.69996C15.35 3.46996 14.75 3.35996 14.28 3.35996Z" fill="#757575"/>
<path d="M12.43 2.39996L11.2387 0.793486L11.2319 0.798506L11.2252 0.803582L12.43 2.39996ZM16.49 2.23996L15.9312 4.1603L15.9324 4.16065L16.49 2.23996ZM21.76 7.50996L19.8393 8.06758L19.8405 8.07153L21.76 7.50996ZM21.6 11.56L20 10.36L19.9982 10.3624L21.6 11.56ZM13.34 3.59996L14.5334 5.20489L14.5428 5.19791L14.5521 5.19082L13.34 3.59996ZM20.41 10.68L21.9953 11.8994L22.0017 11.891L20.41 10.68ZM20.34 7.94996L22.2615 7.39487L22.2586 7.3851L20.34 7.94996ZM16.09 3.69996L15.4964 5.60984L15.5152 5.61568L15.5341 5.62116L16.09 3.69996ZM18.32 10.75H15V14.75H18.32V10.75ZM15 10.75C14.1317 10.75 13.8179 10.5151 13.683 10.364C13.5104 10.1707 13.25 9.68366 13.25 8.54996H9.25C9.25 10.2063 9.61963 11.8192 10.6995 13.0284C11.8171 14.2799 13.3783 14.75 15 14.75V10.75ZM13.25 8.54996V5.67996H9.25V8.54996H13.25ZM13.25 5.67996C13.25 5.22809 13.2798 4.81982 13.3713 4.48645C13.459 4.16653 13.5662 4.04813 13.6348 3.99634L11.2252 0.803582C10.2338 1.55179 9.75098 2.56339 9.51373 3.42847C9.28016 4.28011 9.25 5.11183 9.25 5.67996H13.25ZM13.6213 4.00644C13.7257 3.92903 14.193 3.6545 15.9312 4.1603L17.0488 0.31962C15.007 -0.274578 12.9143 -0.44911 11.2387 0.793486L13.6213 4.00644ZM15.9324 4.16065C17.7546 4.68968 19.3103 6.24537 19.8393 8.06758L23.6807 6.95234C22.7697 3.81455 20.1854 1.23024 17.0476 0.319268L15.9324 4.16065ZM19.8405 8.07153C20.3469 9.80262 20.0671 10.2705 20 10.36L23.2 12.76C24.4529 11.0894 24.2731 8.9773 23.6795 6.94839L19.8405 8.07153ZM19.9982 10.3624C19.9445 10.4342 19.8261 10.541 19.5097 10.6285C19.1784 10.72 18.772 10.75 18.32 10.75V14.75C18.888 14.75 19.7216 14.7199 20.5753 14.4839C21.4439 14.2439 22.4555 13.7558 23.2018 12.7576L19.9982 10.3624ZM14.28 1.35996C13.6727 1.35996 12.8385 1.46768 12.1279 2.0091L14.5521 5.19082C14.3962 5.3096 14.2669 5.34838 14.2273 5.35842C14.1876 5.36852 14.1988 5.35996 14.28 5.35996V1.35996ZM12.1466 1.99504C11.4642 2.50243 11.1397 3.2131 10.9773 3.79501C10.813 4.38401 10.76 5.03252 10.76 5.67996H14.76C14.76 5.4575 14.7696 5.27926 14.7845 5.13935C14.7996 4.99796 14.8183 4.91245 14.8302 4.86991C14.8603 4.76182 14.8258 4.98749 14.5334 5.20489L12.1466 1.99504ZM10.76 5.67996V8.55996H14.76V5.67996H10.76ZM10.76 8.55996C10.76 9.84471 10.9888 11.1881 11.9383 12.1529C12.9123 13.1425 14.1782 13.26 15.01 13.26V9.25996C14.7571 9.25996 14.6462 9.23703 14.6166 9.22865C14.6095 9.22664 14.6968 9.25323 14.7892 9.34707C14.8769 9.4362 14.8702 9.48592 14.8391 9.37728C14.8041 9.25493 14.76 9.0046 14.76 8.55996H10.76ZM15.01 13.26H18.33V9.25996H15.01V13.26ZM18.33 13.26C18.9744 13.26 19.6197 13.2066 20.2074 13.0426C20.7905 12.88 21.4874 12.5595 21.9952 11.8994L18.8248 9.46054C19.0326 9.19038 19.2395 9.15993 19.1326 9.18978C19.089 9.20192 19.0036 9.22059 18.8638 9.23556C18.7254 9.25039 18.5494 9.25996 18.33 9.25996V13.26ZM22.0017 11.891C22.576 11.1362 22.6697 10.2501 22.6517 9.59394C22.6328 8.90159 22.4804 8.15285 22.2614 7.39488L18.4186 8.50504C18.5896 9.09707 18.6472 9.48333 18.6533 9.70348C18.6561 9.80815 18.6457 9.82965 18.6543 9.79288C18.6637 9.75291 18.7009 9.62322 18.8183 9.46892L22.0017 11.891ZM22.2586 7.3851C21.4884 4.76929 19.2811 2.54125 16.6459 1.77876L15.5341 5.62116C16.8389 5.99867 18.0316 7.19063 18.4214 8.51482L22.2586 7.3851ZM16.6836 1.79008C15.8485 1.53053 15.0325 1.35996 14.28 1.35996V5.35996C14.4675 5.35996 14.8515 5.40939 15.4964 5.60984L16.6836 1.79008Z" fill="#757575" mask="url(#path-1-inside-1_27_3861)"/>
<mask id="path-3-inside-2_27_3861" fill="white">
<path d="M11.07 22.7498C10.54 22.7498 10 22.7098 9.46 22.6198C5.37 21.9598 2.04 18.6398 1.38 14.5498C0.530005 9.28983 3.92 4.32983 9.11 3.26983C9.52 3.18983 9.91 3.44983 10 3.84983C10.08 4.25983 9.82 4.64983 9.42 4.73983C5.03 5.63983 2.15 9.83983 2.88 14.3098C3.44 17.7698 6.25 20.5798 9.71 21.1398C14.2 21.8598 18.39 18.9698 19.28 14.5598C19.36 14.1498 19.76 13.8898 20.16 13.9698C20.57 14.0498 20.83 14.4498 20.75 14.8498C19.8 19.5198 15.72 22.7498 11.07 22.7498Z"/>
</mask>
<path d="M11.07 22.7498C10.54 22.7498 10 22.7098 9.46 22.6198C5.37 21.9598 2.04 18.6398 1.38 14.5498C0.530005 9.28983 3.92 4.32983 9.11 3.26983C9.52 3.18983 9.91 3.44983 10 3.84983C10.08 4.25983 9.82 4.64983 9.42 4.73983C5.03 5.63983 2.15 9.83983 2.88 14.3098C3.44 17.7698 6.25 20.5798 9.71 21.1398C14.2 21.8598 18.39 18.9698 19.28 14.5598C19.36 14.1498 19.76 13.8898 20.16 13.9698C20.57 14.0498 20.83 14.4498 20.75 14.8498C19.8 19.5198 15.72 22.7498 11.07 22.7498Z" fill="#757575"/>
<path d="M9.46 22.6198L9.78881 20.647L9.77862 20.6454L9.46 22.6198ZM1.38 14.5498L3.35446 14.2312L3.35439 14.2308L1.38 14.5498ZM9.11 3.26983L8.72698 1.30685L8.71838 1.30853L8.70979 1.31028L9.11 3.26983ZM10 3.84983L11.963 3.46681L11.9575 3.43873L11.9512 3.41081L10 3.84983ZM9.42 4.73983L9.82167 6.69908L9.84039 6.69525L9.85903 6.69105L9.42 4.73983ZM2.88 14.3098L4.85432 13.9903L4.85386 13.9875L2.88 14.3098ZM9.71 21.1398L9.39046 23.1141L9.39334 23.1146L9.71 21.1398ZM19.28 14.5598L21.2405 14.9555L21.243 14.9429L19.28 14.5598ZM20.16 13.9698L19.7678 15.931L19.777 15.9328L20.16 13.9698ZM20.75 14.8498L22.7099 15.2485L22.7112 15.2421L20.75 14.8498ZM11.07 20.7498C10.6401 20.7498 10.2107 20.7174 9.7888 20.647L9.13121 24.5926C9.78934 24.7023 10.4399 24.7498 11.07 24.7498V20.7498ZM9.77862 20.6454C6.53692 20.1223 3.87665 17.4672 3.35446 14.2312L-0.594453 14.8684C0.203356 19.8124 4.20308 23.7974 9.14139 24.5943L9.77862 20.6454ZM3.35439 14.2308C2.67303 10.0143 5.38602 6.0717 9.51022 5.22938L8.70979 1.31028C2.45399 2.58796 -1.61302 8.56533 -0.594382 14.8689L3.35439 14.2308ZM9.49303 5.23281C8.83215 5.36177 8.19443 4.93615 8.04879 4.28886L11.9512 3.41081C11.6256 1.96351 10.2079 1.0179 8.72698 1.30685L9.49303 5.23281ZM8.03702 4.23285C7.90807 3.57198 8.33368 2.93425 8.98098 2.78861L9.85903 6.69105C11.3063 6.36541 12.2519 4.94769 11.963 3.46681L8.03702 4.23285ZM9.01834 2.78058C3.56478 3.89862 0.00519733 9.11537 0.906153 14.6322L4.85386 13.9875C4.29481 10.5643 6.49523 7.38104 9.82167 6.69908L9.01834 2.78058ZM0.905697 14.6294C1.60333 18.9398 5.08006 22.4165 9.39046 23.1141L10.0295 19.1655C7.41995 18.7432 5.27667 16.5999 4.85431 13.9903L0.905697 14.6294ZM9.39334 23.1146C14.9302 24.0025 20.1356 20.4305 21.2405 14.9555L17.3195 14.1642C16.6445 17.5092 13.4698 19.7172 10.0267 19.1651L9.39334 23.1146ZM21.243 14.9429C21.1077 15.636 20.4391 16.0653 19.7678 15.931L20.5522 12.0087C19.0809 11.7144 17.6123 12.6637 17.317 14.1768L21.243 14.9429ZM19.777 15.9328C19.0839 15.7976 18.6546 15.1289 18.7888 14.4576L22.7112 15.2421C23.0054 13.7708 22.0561 12.3021 20.543 12.0069L19.777 15.9328ZM18.7901 14.4511C18.0331 18.1728 14.7861 20.7498 11.07 20.7498V24.7498C16.6539 24.7498 21.5669 20.8669 22.7099 15.2485L18.7901 14.4511Z" fill="#757575" mask="url(#path-3-inside-2_27_3861)"/>
</svg>
