<svg width="24" height="24" viewBox="0 0 24 24" fill="none" xmlns="http://www.w3.org/2000/svg">
<g clip-path="url(#clip0_11_11389)">
<path fill-rule="evenodd" clip-rule="evenodd" d="M16.8423 6.54769C15.6033 5.36599 13.9498 4.72223 12.239 4.74868C9.10839 4.74868 6.44957 6.86074 5.50155 9.70474V9.7048C4.99889 11.1952 4.99889 12.809 5.50155 14.2993H5.50595C6.45837 17.1389 9.11279 19.251 12.2434 19.251C13.8594 19.251 15.2468 18.8376 16.3221 18.1076V18.1046C17.5875 17.2668 18.4518 15.9484 18.7207 14.4581H12.239V9.8371H23.5578C23.6989 10.6396 23.765 11.4597 23.765 12.2755C23.765 15.9253 22.4606 19.0111 20.1911 21.1011L20.1934 21.1029C18.2048 22.9372 15.4755 23.9998 12.239 23.9998C7.7018 23.9998 3.55262 21.4424 1.5155 17.3903V17.3902C-0.186487 13.9995 -0.186483 10.0046 1.51552 6.61386H1.51554L1.5155 6.61383C3.55261 2.55725 7.7018 -0.000167897 12.239 -0.000167897C15.2197 -0.0354426 18.099 1.08453 20.2684 3.12164L16.8423 6.54769Z" fill="#1B76EC"/>
</g>
<defs>
<clipPath id="clip0_11_11389">
<rect width="24" height="24" fill="white"/>
</clipPath>
</defs>
</svg>
