<svg width="40" height="40" viewBox="0 0 40 40" fill="none" xmlns="http://www.w3.org/2000/svg">
<circle cx="20" cy="20" r="20" fill="#FFF0E7"/>
<path d="M23.8333 27.5V14.1667C23.8333 13.7246 23.6577 13.3007 23.3451 12.9882C23.0326 12.6756 22.6087 12.5 22.1666 12.5H18.8333C18.3913 12.5 17.9673 12.6756 17.6548 12.9882C17.3422 13.3007 17.1666 13.7246 17.1666 14.1667V27.5M13.8333 15.8333H27.1666C28.0871 15.8333 28.8333 16.5795 28.8333 17.5V25.8333C28.8333 26.7538 28.0871 27.5 27.1666 27.5H13.8333C12.9128 27.5 12.1666 26.7538 12.1666 25.8333V17.5C12.1666 16.5795 12.9128 15.8333 13.8333 15.8333Z" stroke="#F3813B" stroke-width="2" stroke-linecap="round" stroke-linejoin="round"/>
</svg>
