<svg width="16" height="16" viewBox="0 0 16 16" fill="none" xmlns="http://www.w3.org/2000/svg">
<path d="M11.2 1.33301H9.46667C7.33333 1.33301 6 2.66634 6 4.79967V7.49967H10.1667C10.44 7.49967 10.6667 7.72634 10.6667 7.99967C10.6667 8.27301 10.44 8.49967 10.1667 8.49967H6V11.1997C6 13.333 7.33333 14.6663 9.46667 14.6663H11.1933C13.3267 14.6663 14.66 13.333 14.66 11.1997V4.79967C14.6667 2.66634 13.3333 1.33301 11.2 1.33301Z" fill="#F14E4E"/>
<path d="M3.03996 7.50022L4.41996 6.12022C4.51996 6.02022 4.56663 5.89355 4.56663 5.76689C4.56663 5.64022 4.51996 5.50689 4.41996 5.41355C4.22663 5.22022 3.90663 5.22022 3.71329 5.41355L1.47996 7.64689C1.28663 7.84022 1.28663 8.16022 1.47996 8.35355L3.71329 10.5869C3.90663 10.7802 4.22663 10.7802 4.41996 10.5869C4.61329 10.3936 4.61329 10.0736 4.41996 9.88022L3.03996 8.50022H5.99996V7.50022H3.03996V7.50022Z" fill="#F14E4E"/>
</svg>
