<svg width="18" height="18" viewBox="0 0 18 18" fill="none" xmlns="http://www.w3.org/2000/svg">
<g clip-path="url(#clip0_28_4118)">
<path d="M15.4651 6.525C14.6851 3.0525 11.6551 1.5 9.00006 1.5C9.00006 1.5 9.00006 1.5 8.99256 1.5C6.34506 1.5 3.32256 3.0525 2.53506 6.5175C1.65006 10.3875 4.02006 13.665 6.16506 15.735C6.96006 16.5 7.98006 16.8825 9.00006 16.8825C10.0201 16.8825 11.0401 16.5 11.8276 15.735C13.9726 13.665 16.3426 10.395 15.4651 6.525ZM11.4601 7.1475L8.46006 10.1475C8.34756 10.26 8.20506 10.3125 8.06256 10.3125C7.92006 10.3125 7.77756 10.26 7.66506 10.1475L6.54006 9.0225C6.32256 8.805 6.32256 8.445 6.54006 8.2275C6.75756 8.01 7.11756 8.01 7.33506 8.2275L8.06256 8.955L10.6651 6.3525C10.8826 6.135 11.2426 6.135 11.4601 6.3525C11.6776 6.57 11.6776 6.93 11.4601 7.1475Z" fill="#1B76EC"/>
</g>
<defs>
<clipPath id="clip0_28_4118">
<rect width="18" height="18" fill="white"/>
</clipPath>
</defs>
</svg>
