<svg width="18" height="18" viewBox="0 0 18 18" fill="none" xmlns="http://www.w3.org/2000/svg">
<path d="M14.0476 11.0013L10.9351 14.1138C10.8151 14.2338 10.7026 14.4663 10.6726 14.6313L10.5001 15.8238C10.4401 16.2513 10.7401 16.5588 11.1676 16.4913L12.3601 16.3188C12.5251 16.2963 12.7576 16.1763 12.8776 16.0563L15.9901 12.9438C16.5226 12.4113 16.7776 11.7813 15.9901 10.9938C15.2101 10.2138 14.5876 10.4613 14.0476 11.0013Z" fill="#1B76EC"/>
<path d="M13.605 11.4453C13.8675 12.3903 14.61 13.1253 15.555 13.3953Z" fill="#1B76EC"/>
<path d="M1.52257 10.9727C1.52257 10.9952 1.50757 11.0252 1.50757 11.0477C2.19757 12.4277 3.32257 13.5602 4.70257 14.2427C4.72507 14.2427 4.75507 14.2277 4.77757 14.2277C4.52257 13.3577 4.32757 12.4652 4.18507 11.5727C3.28507 11.4227 2.39257 11.2277 1.52257 10.9727Z" fill="#1B76EC"/>
<path d="M14.3026 4.82258C13.5976 3.34508 12.4051 2.15258 10.9351 1.45508C11.2051 2.34758 11.4301 3.26258 11.5801 4.17758C12.4951 4.32758 13.4101 4.54508 14.3026 4.82258Z" fill="#1B76EC"/>
<path d="M1.44751 4.82215C2.34751 4.55215 3.26251 4.32715 4.17751 4.17715C4.32751 3.28465 4.51501 2.39965 4.77001 1.52965C4.74751 1.52965 4.71751 1.51465 4.69501 1.51465C3.28501 2.21215 2.13751 3.38965 1.44751 4.82215Z" fill="#1B76EC"/>
<path d="M10.365 4.02C10.185 3.045 9.96001 2.07 9.63751 1.125C9.62251 1.0725 9.62251 1.0275 9.61501 0.9675C9.06001 0.8325 8.47501 0.75 7.87501 0.75C7.26751 0.75 6.69001 0.8325 6.12751 0.975C6.12001 1.0275 6.12751 1.0725 6.11251 1.1325C5.79751 2.0775 5.56501 3.045 5.38501 4.02C7.04251 3.84 8.70751 3.84 10.365 4.02Z" fill="#1B76EC"/>
<path d="M4.02 5.38477C3.0375 5.56477 2.0775 5.79727 1.125 6.11227C1.0725 6.12727 1.0275 6.12727 0.975 6.13477C0.8325 6.68977 0.75 7.27477 0.75 7.87477C0.75 8.48227 0.8325 9.05977 0.975 9.62227C1.0275 9.62977 1.0725 9.62227 1.1325 9.63727C2.0775 9.95227 3.045 10.1848 4.0275 10.3648C3.84 8.70727 3.84 7.04227 4.02 5.38477Z" fill="#1B76EC"/>
<path d="M14.7749 6.13477C14.7224 6.13477 14.6774 6.12727 14.6174 6.11227C13.6724 5.79727 12.6974 5.56477 11.7224 5.38477C11.9099 7.04227 11.9099 8.70727 11.7224 10.3573C12.6974 10.1773 13.6724 9.95227 14.6174 9.62977C14.6699 9.61477 14.7149 9.62227 14.7749 9.61477C14.9099 9.05227 14.9999 8.47477 14.9999 7.86727C14.9999 7.27477 14.9174 6.69727 14.7749 6.13477Z" fill="#1B76EC"/>
<path d="M5.38501 11.7302C5.56501 12.7127 5.79001 13.6802 6.11251 14.6252C6.12751 14.6777 6.12001 14.7227 6.12751 14.7827C6.69001 14.9177 7.26751 15.0002 7.87501 15.0002C8.47501 15.0002 9.06001 14.9177 9.61501 14.7752C9.62251 14.7227 9.62251 14.6777 9.63751 14.6177C9.95251 13.6727 10.185 12.7052 10.365 11.7227C9.54001 11.8127 8.70751 11.8802 7.87501 11.8802C7.04251 11.8802 6.21001 11.8202 5.38501 11.7302Z" fill="#1B76EC"/>
<path d="M5.21245 5.21172C4.98745 6.98172 4.98745 8.76672 5.21245 10.5442C6.98245 10.7692 8.76745 10.7692 10.545 10.5442C10.77 8.77422 10.77 6.98922 10.545 5.21172C8.76745 4.98672 6.98245 4.98672 5.21245 5.21172Z" fill="#1B76EC"/>
</svg>
