<svg width="36" height="36" viewBox="0 0 36 36" fill="none" xmlns="http://www.w3.org/2000/svg">
<path d="M0 18C0 8.05887 8.05887 0 18 0V0C27.9411 0 36 8.05887 36 18V18C36 27.9411 27.9411 36 18 36V36C8.05887 36 0 27.9411 0 18V18Z" fill="white"/>
<path d="M19.4417 25.4998C19.2952 25.7524 19.0849 25.962 18.8319 26.1078C18.5788 26.2535 18.292 26.3302 18 26.3302C17.708 26.3302 17.4212 26.2535 17.1681 26.1078C16.9151 25.962 16.7048 25.7524 16.5583 25.4998M23 14.6665C23 13.3404 22.4732 12.0687 21.5355 11.131C20.5979 10.1933 19.3261 9.6665 18 9.6665C16.6739 9.6665 15.4021 10.1933 14.4645 11.131C13.5268 12.0687 13 13.3404 13 14.6665C13 20.4998 10.5 22.1665 10.5 22.1665H25.5C25.5 22.1665 23 20.4998 23 14.6665Z" stroke="#3E4095" stroke-width="1.5" stroke-linecap="round" stroke-linejoin="round"/>
</svg>
