<svg width="20" height="20" viewBox="0 0 20 20" fill="none" xmlns="http://www.w3.org/2000/svg">
<path d="M6.24999 3.33301H13.75C14.2667 3.33301 14.725 3.34967 15.1333 3.40801C17.325 3.64967 17.9167 4.68301 17.9167 7.49967V12.4997C17.9167 15.3163 17.325 16.3497 15.1333 16.5913C14.725 16.6497 14.2667 16.6663 13.75 16.6663H6.24999C5.73333 16.6663 5.27499 16.6497 4.86666 16.5913C2.67499 16.3497 2.08333 15.3163 2.08333 12.4997V7.49967C2.08333 4.68301 2.67499 3.64967 4.86666 3.40801C5.27499 3.34967 5.73333 3.33301 6.24999 3.33301Z" stroke="#1B76EC" stroke-width="1.5" stroke-linecap="round" stroke-linejoin="round"/>
<path d="M11.25 8.33301H14.1667" stroke="#1B76EC" stroke-width="1.5" stroke-linecap="round" stroke-linejoin="round"/>
<path d="M5.83333 12.917H5.84999H14.1667" stroke="#0066EB" stroke-width="1.5" stroke-linecap="round" stroke-linejoin="round"/>
<path d="M8.41217 8.33366H8.41965" stroke="#0066EB" stroke-width="2" stroke-linecap="round" stroke-linejoin="round"/>
<path d="M5.91217 8.33366H5.91965" stroke="#0066EB" stroke-width="2" stroke-linecap="round" stroke-linejoin="round"/>
</svg>
