<svg width="18" height="18" viewBox="0 0 18 18" fill="none" xmlns="http://www.w3.org/2000/svg">
<path d="M12.75 2.625H5.25C3 2.625 1.5 3.75 1.5 6.375V11.625C1.5 14.25 3 15.375 5.25 15.375H12.75C15 15.375 16.5 14.25 16.5 11.625V6.375C16.5 3.75 15 2.625 12.75 2.625ZM4.6875 10.875C4.6875 11.1825 4.4325 11.4375 4.125 11.4375C3.8175 11.4375 3.5625 11.1825 3.5625 10.875V7.125C3.5625 6.8175 3.8175 6.5625 4.125 6.5625C4.4325 6.5625 4.6875 6.8175 4.6875 7.125V10.875ZM9 11.25C7.755 11.25 6.75 10.245 6.75 9C6.75 7.755 7.755 6.75 9 6.75C10.245 6.75 11.25 7.755 11.25 9C11.25 10.245 10.245 11.25 9 11.25ZM14.4375 10.875C14.4375 11.1825 14.1825 11.4375 13.875 11.4375C13.5675 11.4375 13.3125 11.1825 13.3125 10.875V7.125C13.3125 6.8175 13.5675 6.5625 13.875 6.5625C14.1825 6.5625 14.4375 6.8175 14.4375 7.125V10.875Z" fill="#1B76EC"/>
</svg>
