<svg width="20" height="20" viewBox="0 0 20 20" fill="none" xmlns="http://www.w3.org/2000/svg">
<path d="M10 12.4C9.24167 12.4 8.625 11.7833 8.625 11.025V8.9667C8.625 8.20836 9.24167 7.59167 10 7.59167C10.7583 7.59167 11.375 8.20836 11.375 8.9667V11.025C11.375 11.7833 10.7583 12.4 10 12.4Z" stroke="#84B9FF" stroke-width="1.5" stroke-linecap="round"/>
<path d="M14.15 11.225C13.9834 13.375 12.1834 15.0583 10 15.0583C7.70004 15.0583 5.83337 13.1917 5.83337 10.8917V9.10832C5.83337 6.80832 7.70004 4.94165 10 4.94165C12.1584 4.94165 13.9334 6.58331 14.1417 8.68331" stroke="#84B9FF" stroke-width="1.5" stroke-linecap="round"/>
<path d="M12.5 1.66663H14.1667C16.6667 1.66663 18.3333 3.33329 18.3333 5.83329V7.49996" stroke="#0066EB" stroke-width="1.5" stroke-miterlimit="10" stroke-linecap="round" stroke-linejoin="round"/>
<path d="M1.66663 7.49996V5.83329C1.66663 3.33329 3.33329 1.66663 5.83329 1.66663H7.49996" stroke="#0066EB" stroke-width="1.5" stroke-miterlimit="10" stroke-linecap="round" stroke-linejoin="round"/>
<path d="M12.5 18.3333H14.1667C16.6667 18.3333 18.3333 16.6667 18.3333 14.1667V12.5" stroke="#0066EB" stroke-width="1.5" stroke-miterlimit="10" stroke-linecap="round" stroke-linejoin="round"/>
<path d="M1.66663 12.5V14.1667C1.66663 16.6667 3.33329 18.3333 5.83329 18.3333H7.49996" stroke="#0066EB" stroke-width="1.5" stroke-miterlimit="10" stroke-linecap="round" stroke-linejoin="round"/>
</svg>
