<svg width="18" height="18" viewBox="0 0 18 18" fill="none" xmlns="http://www.w3.org/2000/svg">
<path d="M4.4775 0.75H2.2725C1.32 0.75 0.75 1.32 0.75 2.2725V4.4775C0.75 5.43 1.32 6 2.2725 6H4.4775C5.43 6 6 5.43 6 4.4775V2.2725C6 1.32 5.43 0.75 4.4775 0.75ZM4.8525 4.17C5.04 4.3575 5.04 4.665 4.8525 4.8525C4.755 4.9425 4.6275 4.9875 4.5075 4.9875C4.3875 4.9875 4.2675 4.9425 4.17 4.8525L3.3675 4.0575L2.5875 4.8525C2.49 4.9425 2.37 4.9875 2.235 4.9875C2.115 4.9875 1.995 4.9425 1.8975 4.8525C1.71 4.665 1.71 4.3575 1.8975 4.17L2.7 3.375L1.905 2.5875C1.7175 2.4 1.7175 2.0925 1.905 1.905C2.0925 1.7175 2.4 1.7175 2.5875 1.905L3.3675 2.7L4.1625 1.905C4.35 1.7175 4.6575 1.7175 4.845 1.905C5.0325 2.0925 5.0325 2.4 4.845 2.5875L4.0575 3.375L4.8525 4.17Z" fill="#1B76EC"/>
<path d="M16.1251 11.8648C16.1251 11.9773 16.0876 12.0898 15.9901 12.1873C14.9026 13.2823 12.9676 15.2323 11.8576 16.3498C11.7601 16.4548 11.6326 16.4998 11.5051 16.4998C11.2576 16.4998 11.0176 16.3048 11.0176 16.0198V13.3948C11.0176 12.2998 11.9476 11.3923 13.0876 11.3923C13.8001 11.3848 14.7901 11.3848 15.6376 11.3848C15.9301 11.3848 16.1251 11.6173 16.1251 11.8648Z" fill="#1B76EC"/>
<path d="M16.1251 11.8648C16.1251 11.9773 16.0876 12.0898 15.9901 12.1873C14.9026 13.2823 12.9676 15.2323 11.8576 16.3498C11.7601 16.4548 11.6326 16.4998 11.5051 16.4998C11.2576 16.4998 11.0176 16.3048 11.0176 16.0198V13.3948C11.0176 12.2998 11.9476 11.3923 13.0876 11.3923C13.8001 11.3848 14.7901 11.3848 15.6376 11.3848C15.9301 11.3848 16.1251 11.6173 16.1251 11.8648Z" fill="#1B76EC"/>
<path d="M12.4725 1.5H7.875C7.4625 1.5 7.125 1.8375 7.125 2.25V4.875C7.125 6.12 6.12 7.125 4.875 7.125H2.625C2.2125 7.125 1.875 7.4625 1.875 7.875V12.8475C1.875 14.865 3.51 16.5 5.5275 16.5H9.1425C9.555 16.5 9.8925 16.1625 9.8925 15.75V13.395C9.8925 11.67 11.325 10.2675 13.0875 10.2675C13.485 10.26 14.4525 10.26 15.375 10.26C15.7875 10.26 16.125 9.93 16.125 9.51V5.1525C16.125 3.135 14.49 1.5 12.4725 1.5ZM6.54 12.7575H4.56C4.2525 12.7575 3.9975 12.5025 3.9975 12.195C3.9975 11.88 4.2525 11.625 4.56 11.625H6.54C6.8625 11.625 7.1025 11.88 7.1025 12.195C7.1025 12.5025 6.8625 12.7575 6.54 12.7575ZM8.6325 9.975H4.56C4.2525 9.975 3.9975 9.72 3.9975 9.4125C3.9975 9.0975 4.2525 8.8425 4.56 8.8425H8.6325C8.94 8.8425 9.2025 9.0975 9.2025 9.4125C9.2025 9.72 8.94 9.975 8.6325 9.975Z" fill="#1B76EC"/>
</svg>
