<svg width="40" height="40" viewBox="0 0 40 40" fill="none" xmlns="http://www.w3.org/2000/svg">
<circle cx="20" cy="20" r="20" fill="#F0F2FF"/>
<path d="M12.668 15L15.168 11.6666H25.168L27.668 15M12.668 15V26.6666C12.668 27.1087 12.8436 27.5326 13.1561 27.8451C13.4687 28.1577 13.8926 28.3333 14.3346 28.3333H26.0013C26.4433 28.3333 26.8673 28.1577 27.1798 27.8451C27.4924 27.5326 27.668 27.1087 27.668 26.6666V15M12.668 15H27.668M23.5013 18.3333C23.5013 19.2173 23.1501 20.0652 22.525 20.6903C21.8999 21.3154 21.052 21.6666 20.168 21.6666C19.2839 21.6666 18.4361 21.3154 17.8109 20.6903C17.1858 20.0652 16.8346 19.2173 16.8346 18.3333" stroke="#687DF1" stroke-width="2" stroke-linecap="round" stroke-linejoin="round"/>
</svg>
