<svg width="27" height="27" viewBox="0 0 27 27" fill="none" xmlns="http://www.w3.org/2000/svg">
<path d="M3.04695 11.0002C2.57395 11.0002 2.19995 10.6262 2.19995 10.1532V7.6122C2.19995 4.6312 4.63095 2.2002 7.61195 2.2002H10.153C10.626 2.2002 11 2.5742 11 3.0472C11 3.5202 10.626 3.8942 10.153 3.8942H7.61195C5.55495 3.8942 3.89395 5.5662 3.89395 7.6122V10.1532C3.89395 10.6262 3.50895 11.0002 3.04695 11.0002Z" fill="white"/>
<path d="M23.3529 11.0002C22.8909 11.0002 22.5059 10.6262 22.5059 10.1532V7.6122C22.5059 5.5552 20.8339 3.8942 18.7879 3.8942H16.2469C15.7739 3.8942 15.3999 3.5092 15.3999 3.0472C15.3999 2.5852 15.7739 2.2002 16.2469 2.2002H18.7879C21.7689 2.2002 24.1999 4.6312 24.1999 7.6122V10.1532C24.1999 10.6262 23.8259 11.0002 23.3529 11.0002Z" fill="white"/>
<path d="M18.7879 24.2003H17.2589C16.7969 24.2003 16.4119 23.8263 16.4119 23.3533C16.4119 22.8913 16.7859 22.5063 17.2589 22.5063H18.7879C20.8449 22.5063 22.5059 20.8343 22.5059 18.7883V17.2703C22.5059 16.8083 22.8799 16.4233 23.3529 16.4233C23.8149 16.4233 24.1999 16.7973 24.1999 17.2703V18.7883C24.1999 21.7693 21.7689 24.2003 18.7879 24.2003Z" fill="white"/>
<path d="M10.153 24.1999H7.61195C4.63095 24.1999 2.19995 21.7689 2.19995 18.7879V16.2469C2.19995 15.7739 2.57395 15.3999 3.04695 15.3999C3.51995 15.3999 3.89395 15.7739 3.89395 16.2469V18.7879C3.89395 20.8449 5.56595 22.5059 7.61195 22.5059H10.153C10.615 22.5059 11 22.8799 11 23.3529C11 23.8259 10.626 24.1999 10.153 24.1999Z" fill="white"/>
<path d="M20.3061 12.353H18.8101H7.59007H6.09407C5.62107 12.353 5.24707 12.738 5.24707 13.2C5.24707 13.662 5.62107 14.047 6.09407 14.047H7.59007H18.8101H20.3061C20.7791 14.047 21.1531 13.662 21.1531 13.2C21.1531 12.738 20.7791 12.353 20.3061 12.353Z" fill="white"/>
<path d="M7.58984 15.334V15.697C7.58984 17.523 9.06384 18.997 10.8898 18.997H15.5098C17.3358 18.997 18.8098 17.523 18.8098 15.697V15.334C18.8098 15.202 18.7108 15.103 18.5788 15.103H7.82084C7.68884 15.103 7.58984 15.202 7.58984 15.334Z" fill="white"/>
<path d="M7.58984 11.0658V10.7028C7.58984 8.87683 9.06384 7.40283 10.8898 7.40283H15.5098C17.3358 7.40283 18.8098 8.87683 18.8098 10.7028V11.0658C18.8098 11.1978 18.7108 11.2968 18.5788 11.2968H7.82084C7.68884 11.2968 7.58984 11.1978 7.58984 11.0658Z" fill="white"/>
</svg>
