<svg width="18" height="18" viewBox="0 0 18 18" fill="none" xmlns="http://www.w3.org/2000/svg">
<path d="M15.075 6.91507C13.7175 6.91507 13.1625 5.95507 13.8375 4.77757C14.2275 4.09507 13.995 3.22507 13.3125 2.83507L12.015 2.09257C11.4225 1.74007 10.6575 1.95007 10.305 2.54257L10.2225 2.68507C9.5475 3.86257 8.4375 3.86257 7.755 2.68507L7.6725 2.54257C7.335 1.95007 6.57 1.74007 5.9775 2.09257L4.68 2.83507C3.9975 3.22507 3.765 4.10257 4.155 4.78507C4.8375 5.95507 4.2825 6.91507 2.925 6.91507C2.145 6.91507 1.5 7.55257 1.5 8.34007V9.66007C1.5 10.4401 2.1375 11.0851 2.925 11.0851C4.2825 11.0851 4.8375 12.0451 4.155 13.2226C3.765 13.9051 3.9975 14.7751 4.68 15.1651L5.9775 15.9076C6.57 16.2601 7.335 16.0501 7.6875 15.4576L7.77 15.3151C8.445 14.1376 9.555 14.1376 10.2375 15.3151L10.32 15.4576C10.6725 16.0501 11.4375 16.2601 12.03 15.9076L13.3275 15.1651C14.01 14.7751 14.2425 13.8976 13.8525 13.2226C13.17 12.0451 13.725 11.0851 15.0825 11.0851C15.8625 11.0851 16.5075 10.4476 16.5075 9.66007V8.34007C16.5 7.56007 15.8625 6.91507 15.075 6.91507ZM9 11.4376C7.6575 11.4376 6.5625 10.3426 6.5625 9.00007C6.5625 7.65757 7.6575 6.56257 9 6.56257C10.3425 6.56257 11.4375 7.65757 11.4375 9.00007C11.4375 10.3426 10.3425 11.4376 9 11.4376Z" fill="#1B76EC"/>
</svg>
