<svg width="16" height="16" viewBox="0 0 16 16" fill="none" xmlns="http://www.w3.org/2000/svg">
<path d="M8.00004 1.33331C4.32671 1.33331 1.33337 4.32665 1.33337 7.99998C1.33337 11.6733 4.32671 14.6666 8.00004 14.6666C11.6734 14.6666 14.6667 11.6733 14.6667 7.99998C14.6667 4.32665 11.6734 1.33331 8.00004 1.33331ZM11.1867 6.46665L7.40671 10.2466C7.31337 10.34 7.18671 10.3933 7.05337 10.3933C6.92004 10.3933 6.79337 10.34 6.70004 10.2466L4.81337 8.35998C4.62004 8.16665 4.62004 7.84665 4.81337 7.65331C5.00671 7.45998 5.32671 7.45998 5.52004 7.65331L7.05337 9.18665L10.48 5.75998C10.6734 5.56665 10.9934 5.56665 11.1867 5.75998C11.38 5.95331 11.38 6.26665 11.1867 6.46665Z" fill="#19B36E"/>
</svg>
