<svg width="24" height="24" viewBox="0 0 24 24" fill="none" xmlns="http://www.w3.org/2000/svg">
<path d="M19.1055 5.48376L19.1067 5.4843C19.7603 5.77383 20.0765 6.08975 20.2336 6.33161C20.3903 6.57274 20.4199 6.78812 20.4199 6.93C20.4199 7.06809 20.3895 7.28394 20.2307 7.52708C20.0716 7.77068 19.7541 8.08691 19.1055 8.37623C19.1054 8.37627 19.1053 8.37631 19.1052 8.37635L13.2472 10.9854C13.247 10.9855 13.2468 10.9856 13.2466 10.9857C12.9148 11.1322 12.4677 11.22 11.9999 11.22C11.5322 11.22 11.0851 11.1322 10.7534 10.9858C10.7532 10.9857 10.7529 10.9856 10.7526 10.9854L4.89467 8.37635C4.89457 8.37631 4.89448 8.37627 4.89439 8.37623C4.24572 8.08691 3.92824 7.77068 3.76916 7.52708C3.61037 7.28394 3.57993 7.06809 3.57993 6.93C3.57993 6.7919 3.61037 6.57605 3.76916 6.33291C3.92826 6.08928 4.24581 5.773 4.89467 5.48364L10.7526 2.87454C10.7529 2.87442 10.7532 2.87429 10.7535 2.87417C11.0818 2.7293 11.5276 2.645 11.9999 2.645C12.4723 2.645 12.9182 2.72932 13.2465 2.87421C13.2467 2.87432 13.247 2.87443 13.2472 2.87454L19.1055 5.48376Z" stroke="#757575" stroke-width="1.3"/>
<path d="M12.0001 17.04C11.6201 17.04 11.2401 16.96 10.8901 16.81L4.15007 13.81C3.12007 13.35 2.32007 12.12 2.32007 10.99C2.32007 10.58 2.65007 10.25 3.06007 10.25C3.47007 10.25 3.80007 10.58 3.80007 10.99C3.80007 11.53 4.25007 12.23 4.75007 12.45L11.4901 15.45C11.8101 15.59 12.1801 15.59 12.5001 15.45L19.2401 12.45C19.7401 12.23 20.1901 11.54 20.1901 10.99C20.1901 10.58 20.5201 10.25 20.9301 10.25C21.3401 10.25 21.6701 10.58 21.6701 10.99C21.6701 12.11 20.8701 13.35 19.8401 13.81L13.1001 16.81C12.7601 16.96 12.3801 17.04 12.0001 17.04Z" fill="#757575"/>
<path d="M12.0001 22C11.6201 22 11.2401 21.92 10.8901 21.77L4.15007 18.77C3.04007 18.28 2.32007 17.17 2.32007 15.95C2.32007 15.54 2.65007 15.21 3.06007 15.21C3.47007 15.21 3.80007 15.54 3.80007 15.95C3.80007 16.58 4.17007 17.15 4.75007 17.41L11.4901 20.41C11.8101 20.55 12.1801 20.55 12.5001 20.41L19.2401 17.41C19.8101 17.16 20.1901 16.58 20.1901 15.95C20.1901 15.54 20.5201 15.21 20.9301 15.21C21.3401 15.21 21.6701 15.54 21.6701 15.95C21.6701 17.17 20.9501 18.27 19.8401 18.77L13.1001 21.77C12.7601 21.92 12.3801 22 12.0001 22Z" fill="#757575"/>
</svg>
