<svg width="16" height="16" viewBox="0 0 16 16" fill="none" xmlns="http://www.w3.org/2000/svg">
<path d="M7.99998 1.33301C4.32665 1.33301 1.33331 4.32634 1.33331 7.99967C1.33331 11.673 4.32665 14.6663 7.99998 14.6663C11.6733 14.6663 14.6666 11.673 14.6666 7.99967C14.6666 4.32634 11.6733 1.33301 7.99998 1.33301ZM11.1866 6.46634L7.40665 10.2463C7.31331 10.3397 7.18665 10.393 7.05331 10.393C6.91998 10.393 6.79331 10.3397 6.69998 10.2463L4.81331 8.35967C4.61998 8.16634 4.61998 7.84634 4.81331 7.65301C5.00665 7.45967 5.32665 7.45967 5.51998 7.65301L7.05331 9.18634L10.48 5.75967C10.6733 5.56634 10.9933 5.56634 11.1866 5.75967C11.38 5.95301 11.38 6.26634 11.1866 6.46634Z" fill="#19B36E"/>
</svg>
