<svg width="16" height="16" viewBox="0 0 16 16" fill="none" xmlns="http://www.w3.org/2000/svg">
<path d="M8.00004 1.33301C4.32004 1.33301 1.33337 4.31967 1.33337 7.99967C1.33337 11.6797 4.32004 14.6663 8.00004 14.6663C11.68 14.6663 14.6667 11.6797 14.6667 7.99967C14.6667 4.31967 11.68 1.33301 8.00004 1.33301ZM5.68671 8.97967C5.88004 9.17301 5.88004 9.49301 5.68671 9.68634C5.58671 9.78634 5.46004 9.83301 5.33337 9.83301C5.20671 9.83301 5.08004 9.78634 4.98004 9.68634L3.64671 8.35301C3.45337 8.15967 3.45337 7.83967 3.64671 7.64634L4.98004 6.31301C5.17337 6.11967 5.49337 6.11967 5.68671 6.31301C5.88004 6.50634 5.88004 6.82634 5.68671 7.01967L4.70671 7.99967L5.68671 8.97967ZM9.12671 6.63967L7.79337 9.75301C7.71337 9.93967 7.52671 10.053 7.33337 10.053C7.26671 10.053 7.20004 10.0397 7.14004 10.013C6.88671 9.90634 6.76671 9.61301 6.88004 9.35301L8.21337 6.23967C8.32004 5.98634 8.61337 5.86634 8.86671 5.97967C9.12004 6.09301 9.23337 6.38634 9.12671 6.63967ZM12.3534 8.35301L11.02 9.68634C10.92 9.78634 10.7934 9.83301 10.6667 9.83301C10.54 9.83301 10.4134 9.78634 10.3134 9.68634C10.12 9.49301 10.12 9.17301 10.3134 8.97967L11.2934 7.99967L10.3134 7.01967C10.12 6.82634 10.12 6.50634 10.3134 6.31301C10.5067 6.11967 10.8267 6.11967 11.02 6.31301L12.3534 7.64634C12.5467 7.83967 12.5467 8.15967 12.3534 8.35301Z" fill="#7A5AF8"/>
</svg>
