<svg width="16" height="16" viewBox="0 0 16 16" fill="none" xmlns="http://www.w3.org/2000/svg">
<path d="M7.99998 1.33301C4.32665 1.33301 1.33331 4.32634 1.33331 7.99967C1.33331 11.673 4.32665 14.6663 7.99998 14.6663C11.6733 14.6663 14.6666 11.673 14.6666 7.99967C14.6666 4.32634 11.6733 1.33301 7.99998 1.33301ZM10.9 10.3797C10.8066 10.5397 10.64 10.6263 10.4666 10.6263C10.38 10.6263 10.2933 10.6063 10.2133 10.553L8.14665 9.31967C7.63331 9.01301 7.25331 8.33967 7.25331 7.74634V5.01301C7.25331 4.73967 7.47998 4.51301 7.75331 4.51301C8.02665 4.51301 8.25331 4.73967 8.25331 5.01301V7.74634C8.25331 7.98634 8.45331 8.33967 8.65998 8.45967L10.7266 9.69301C10.9666 9.83301 11.0466 10.1397 10.9 10.3797Z" fill="#F79009"/>
</svg>
