<svg width="16" height="16" viewBox="0 0 16 16" fill="none" xmlns="http://www.w3.org/2000/svg">
<path d="M14.6667 14.1667C14.6667 14.44 14.44 14.6667 14.1667 14.6667H1.83337C1.56004 14.6667 1.33337 14.44 1.33337 14.1667C1.33337 13.8934 1.56004 13.6667 1.83337 13.6667H14.1667C14.44 13.6667 14.6667 13.8934 14.6667 14.1667Z" fill="#D0D5DD"/>
<path d="M10.26 3.01336L3.1 10.1734C2.82667 10.4467 2.38667 10.4467 2.12 10.1734H2.11333C1.18667 9.24003 1.18667 7.73336 2.11333 6.80669L6.88 2.04003C7.81333 1.10669 9.32 1.10669 10.2533 2.04003C10.5267 2.30003 10.5267 2.74669 10.26 3.01336Z" fill="#0066EB"/>
<path d="M13.88 5.66002L11.8467 3.62669C11.5734 3.35336 11.1334 3.35336 10.8667 3.62669L3.70671 10.7867C3.43338 11.0534 3.43338 11.4934 3.70671 11.7667L5.74004 13.8067C6.67338 14.7334 8.18004 14.7334 9.11338 13.8067L13.8734 9.04003C14.82 8.10669 14.82 6.59336 13.88 5.66002ZM8.50671 11.68L7.70004 12.4934C7.53338 12.66 7.26004 12.66 7.08671 12.4934C6.92004 12.3267 6.92004 12.0534 7.08671 11.88L7.90004 11.0667C8.06004 10.9067 8.34004 10.9067 8.50671 11.0667C8.67338 11.2334 8.67338 11.52 8.50671 11.68ZM11.1534 9.03336L9.52671 10.6667C9.36004 10.8267 9.08671 10.8267 8.91338 10.6667C8.74671 10.5 8.74671 10.2267 8.91338 10.0534L10.5467 8.42002C10.7067 8.26002 10.9867 8.26002 11.1534 8.42002C11.32 8.59336 11.32 8.86669 11.1534 9.03336Z" fill="#0066EB"/>
</svg>
