<svg width="18" height="18" viewBox="0 0 18 18" fill="none" xmlns="http://www.w3.org/2000/svg">
<path d="M12.1425 1.5H5.8575C3.1275 1.5 1.5 3.1275 1.5 5.8575V12.135C1.5 14.8725 3.1275 16.5 5.8575 16.5H12.135C14.865 16.5 16.4925 14.8725 16.4925 12.1425V5.8575C16.5 3.1275 14.8725 1.5 12.1425 1.5ZM7.5975 10.875C7.815 11.0925 7.815 11.4525 7.5975 11.67C7.485 11.7825 7.3425 11.835 7.2 11.835C7.0575 11.835 6.915 11.7825 6.8025 11.67L4.935 9.8025C4.4925 9.36 4.4925 8.6475 4.935 8.205L6.8025 6.3375C7.02 6.12 7.38 6.12 7.5975 6.3375C7.815 6.555 7.815 6.915 7.5975 7.1325L5.73 9L7.5975 10.875ZM13.065 9.795L11.1975 11.6625C11.085 11.775 10.9425 11.8275 10.8 11.8275C10.6575 11.8275 10.515 11.775 10.4025 11.6625C10.185 11.445 10.185 11.085 10.4025 10.8675L12.27 9L10.4025 7.125C10.185 6.9075 10.185 6.5475 10.4025 6.33C10.62 6.1125 10.98 6.1125 11.1975 6.33L13.065 8.1975C13.5075 8.64 13.5075 9.36 13.065 9.795Z" fill="#1B76EC"/>
</svg>
