<svg width="16" height="16" viewBox="0 0 16 16" fill="none" xmlns="http://www.w3.org/2000/svg">
<path d="M7.29997 8.46669L6.3333 7.51669C6.21108 7.39447 6.05841 7.33336 5.8753 7.33336C5.69219 7.33336 5.53375 7.40003 5.39997 7.53336C5.27775 7.65558 5.21663 7.81114 5.21663 8.00003C5.21663 8.18892 5.27775 8.34447 5.39997 8.46669L6.8333 9.90003C6.96663 10.0334 7.12219 10.1 7.29997 10.1C7.47775 10.1 7.6333 10.0334 7.76663 9.90003L10.6 7.06669C10.7333 6.93336 10.7971 6.7778 10.7913 6.60003C10.7855 6.42225 10.7217 6.26669 10.6 6.13336C10.4666 6.00003 10.3084 5.93069 10.1253 5.92536C9.94219 5.92003 9.78375 5.9838 9.64997 6.11669L7.29997 8.46669ZM5.4333 14.5L4.46663 12.8667L2.6333 12.4667C2.46663 12.4334 2.3333 12.3474 2.2333 12.2087C2.1333 12.07 2.09441 11.9171 2.11663 11.75L2.29997 9.86669L1.04997 8.43336C0.938856 8.31114 0.883301 8.16669 0.883301 8.00003C0.883301 7.83336 0.938856 7.68892 1.04997 7.56669L2.29997 6.13336L2.11663 4.25003C2.09441 4.08336 2.1333 3.93047 2.2333 3.79136C2.3333 3.65225 2.46663 3.56625 2.6333 3.53336L4.46663 3.13336L5.4333 1.50003C5.52219 1.35558 5.64441 1.25825 5.79997 1.20803C5.95552 1.1578 6.11108 1.16625 6.26663 1.23336L7.99997 1.96669L9.7333 1.23336C9.88886 1.16669 10.0444 1.15825 10.2 1.20803C10.3555 1.2578 10.4777 1.35514 10.5666 1.50003L11.5333 3.13336L13.3666 3.53336C13.5333 3.56669 13.6666 3.65292 13.7666 3.79203C13.8666 3.93114 13.9055 4.0838 13.8833 4.25003L13.7 6.13336L14.95 7.56669C15.0611 7.68892 15.1166 7.83336 15.1166 8.00003C15.1166 8.16669 15.0611 8.31114 14.95 8.43336L13.7 9.86669L13.8833 11.75C13.9055 11.9167 13.8666 12.0696 13.7666 12.2087C13.6666 12.3478 13.5333 12.4338 13.3666 12.4667L11.5333 12.8667L10.5666 14.5C10.4777 14.6445 10.3555 14.7418 10.2 14.792C10.0444 14.8422 9.88886 14.8338 9.7333 14.7667L7.99997 14.0334L6.26663 14.7667C6.11108 14.8334 5.95552 14.8418 5.79997 14.792C5.64441 14.7422 5.52219 14.6449 5.4333 14.5Z" fill="#1B76EC"/>
</svg>
