<svg width="392" height="392" viewBox="0 0 392 392" fill="none" xmlns="http://www.w3.org/2000/svg">
<path d="M392 299.8H0V299.996H392V299.8Z" fill="#D1E3FF"/>
<path d="M93.8048 308.104H67.3511V308.3H93.8048V308.104Z" fill="#D1E3FF"/>
<path d="M61.6022 308.202H45.9058V308.398H61.6022V308.202Z" fill="#D1E3FF"/>
<path d="M237.639 303.996H163.327V304.192H237.639V303.996Z" fill="#D1E3FF"/>
<path d="M131.538 313.664H107.844V313.86H131.538V313.664Z" fill="#D1E3FF"/>
<path d="M324.315 306.696H262.64V306.892H324.315V306.696Z" fill="#D1E3FF"/>
<path d="M185.819 264.835H34.4292C31.9619 264.835 29.9541 262.828 29.9541 260.36V47.5576C29.9541 45.0903 31.9619 43.0825 34.4292 43.0825H185.819C188.285 43.0825 190.293 45.0903 190.293 47.5576V260.36C190.293 262.828 188.285 264.835 185.819 264.835ZM34.4292 43.2793C32.0693 43.2793 30.1501 45.1985 30.1501 47.5584V260.361C30.1501 262.721 32.0693 264.64 34.4292 264.64H185.819C188.178 264.64 190.097 262.721 190.097 260.361V47.5576C190.097 45.1985 188.178 43.2785 185.819 43.2785L34.4292 43.2793Z" fill="#D1E3FF"/>
<path d="M355.395 264.835H204.006C201.54 264.835 199.532 262.828 199.532 260.36V47.5576C199.532 45.0903 201.54 43.0825 204.006 43.0825H355.395C357.863 43.0825 359.87 45.0903 359.87 47.5576V260.36C359.871 262.828 357.863 264.835 355.395 264.835ZM204.006 43.2793C201.647 43.2793 199.728 45.1985 199.728 47.5584V260.361C199.728 262.721 201.647 264.64 204.006 264.64H355.395C357.755 264.64 359.674 262.721 359.674 260.361V47.5576C359.674 45.1985 357.755 43.2785 355.395 43.2785L204.006 43.2793Z" fill="#D1E3FF"/>
<path d="M330.239 208.371H310.262V299.8H330.239V208.371Z" fill="#D1E3FF"/>
<path d="M326.444 299.8H330.238V289.008H322.466L326.444 299.8Z" fill="#EEF9FF"/>
<path d="M255.58 208.371H235.604V299.8H255.58V208.371Z" fill="#D1E3FF"/>
<path d="M330.238 208.371H252.268V293.177H330.238V208.371Z" fill="#EEF9FF"/>
<path d="M292.527 251.653V279.686H327.295V251.653H292.527Z" fill="#D1E3FF"/>
<path d="M255.211 251.652V279.686H289.979V251.652H255.211Z" fill="#D1E3FF"/>
<path d="M276.035 254.671H269.156C266.168 254.671 263.312 253.443 261.257 251.274H283.934C281.879 253.443 279.023 254.671 276.035 254.671Z" fill="#EEF9FF"/>
<path d="M313.701 254.671H306.823C303.835 254.671 300.979 253.443 298.924 251.274H321.6C319.545 253.443 316.689 254.671 313.701 254.671Z" fill="#EEF9FF"/>
<path d="M292.526 214.761V242.794H327.294V214.761H292.526Z" fill="#D1E3FF"/>
<path d="M255.211 214.76V242.794H289.979V214.76H255.211Z" fill="#D1E3FF"/>
<path d="M276.035 217.779H269.156C266.168 217.779 263.312 216.551 261.257 214.382H283.934C281.879 216.551 279.023 217.779 276.035 217.779Z" fill="#EEF9FF"/>
<path d="M313.701 217.779H306.823C303.835 217.779 300.979 216.551 298.924 214.382H321.6C319.545 216.551 316.689 217.779 313.701 217.779Z" fill="#EEF9FF"/>
<path d="M256.063 299.8H252.268V289.008H260.041L256.063 299.8Z" fill="#EEF9FF"/>
<path d="M271.552 194.049C271.552 197.542 273.984 199.977 270.49 199.977C266.997 199.977 258.903 197.542 258.903 194.049C258.903 190.556 261.735 187.725 265.228 187.725C268.721 187.725 271.552 190.556 271.552 194.049Z" fill="#CADEFC"/>
<path d="M282.379 197.063C282.379 200.556 284.81 202.991 281.316 202.991C277.823 202.991 269.729 200.556 269.729 197.063C269.729 193.57 272.561 190.738 276.054 190.738C279.547 190.738 282.379 193.57 282.379 197.063Z" fill="#CADEFC"/>
<path d="M292.75 195.205C292.75 198.698 295.181 201.133 291.689 201.133C288.196 201.133 280.101 198.698 280.101 195.205C280.101 191.713 282.933 188.881 286.426 188.881C289.918 188.881 292.75 191.713 292.75 195.205Z" fill="#CADEFC"/>
<path d="M255.026 196.031C255.026 196.031 255.544 208.371 275.369 208.371C295.194 208.371 295.711 196.031 295.711 196.031H255.026Z" fill="#E3EEFF"/>
<path d="M331.065 58.0083H230.533V169.256H331.065V58.0083Z" fill="#D1E3FF"/>
<path d="M341.839 54.5752H224.025C223.474 54.5752 223.027 55.0221 223.027 55.5732C223.027 56.1244 223.474 56.5713 224.025 56.5713H341.839C342.39 56.5713 342.837 56.1244 342.837 55.5732C342.837 55.0221 342.39 54.5752 341.839 54.5752Z" fill="#D1E3FF"/>
<path d="M335.331 58.0083H232.526V169.256H335.331V58.0083Z" fill="#E3EEFF"/>
<path d="M331.065 169.255H230.533V177.182H331.065V169.255Z" fill="#D1E3FF"/>
<path d="M342.438 169.255H239.633V177.182H342.438V169.255Z" fill="#E3EEFF"/>
<path d="M329.359 163.283V63.9805L238.499 63.9805V163.283H329.359Z" fill="#F5FCFF"/>
<path d="M259.124 163.284L294.176 63.981H310.722L275.67 163.284H259.124Z" fill="white"/>
<path d="M279.225 163.284L314.277 63.981H320.728L285.676 163.284H279.225Z" fill="white"/>
<path d="M329.359 163.283V63.9805H328.601V163.283H329.359Z" fill="#D1E3FF"/>
<path d="M238.568 52.7891H228.29V148.611H238.568V52.7891Z" fill="#EBF3FF"/>
<path d="M242.572 52.7891H234.564V148.611H242.572V52.7891Z" fill="#D1E3FF"/>
<path d="M248.846 52.7891H238.568V148.611H248.846V52.7891Z" fill="#EBF3FF"/>
<path d="M252.85 52.7891H244.842V148.611H252.85V52.7891Z" fill="#D1E3FF"/>
<path d="M259.124 52.7891H248.846V148.611H259.124V52.7891Z" fill="#EBF3FF"/>
<path d="M325.534 52.7891H319.611V148.611H325.534V52.7891Z" fill="#EBF3FF"/>
<path d="M327.841 52.7891H323.227V148.611H327.841V52.7891Z" fill="#D1E3FF"/>
<path d="M331.456 52.7891H325.533V148.611H331.456V52.7891Z" fill="#EBF3FF"/>
<path d="M333.764 52.7891H329.149V148.611H333.764V52.7891Z" fill="#D1E3FF"/>
<path d="M337.38 52.7891H331.457V148.611H337.38V52.7891Z" fill="#EBF3FF"/>
<path d="M86.5291 82.8203H75.8188V112.042H86.5291V82.8203Z" fill="#E3EEFF"/>
<path d="M61.1815 118.732L57.7837 128.011H61.1815L82.0069 118.732H61.1815Z" fill="#F3F8FF"/>
<path d="M57.7837 118.732V128.011L78.6091 118.732H57.7837Z" fill="#D1E3FF"/>
<path d="M142.848 118.732L139.451 128.011H142.848L163.673 118.732H142.848Z" fill="#F3F8FF"/>
<path d="M139.451 118.732V128.011L160.276 118.732H139.451Z" fill="#D1E3FF"/>
<path d="M42.496 119.168H65.145V112.1H42.496V119.168Z" fill="#D1E3FF"/>
<path d="M177.75 112.1H65.1445V119.168H177.75V112.1Z" fill="#F3F8FF"/>
<path d="M104.367 112.042H78.3007L75.0776 76.6313H101.144L104.367 112.042Z" fill="#D1E3FF"/>
<path d="M105.717 112.042H79.6508L76.4277 76.6313H102.494L105.717 112.042Z" fill="#EEF9FF"/>
<path d="M83.2142 108.122L80.7046 80.5513H98.931L101.441 108.122H83.2142Z" fill="white"/>
<path d="M116.233 100.542C116.233 100.542 116.715 112.042 135.191 112.042C153.667 112.042 154.149 100.542 154.149 100.542H116.233Z" fill="#E3EEFF"/>
<path d="M97.0309 297.257H68.4698C67.1432 297.257 66.0174 296.444 65.6011 295.184C65.1848 293.925 65.6035 292.6 66.6689 291.809L67.1362 292.438C66.1789 293.149 66.1005 294.195 66.3459 294.938C66.5913 295.68 67.2781 296.473 68.4705 296.473H97.0317C100.669 296.473 103.627 293.515 103.627 289.878V205.314C103.627 201.351 106.85 198.127 110.814 198.127H119.355V198.911H110.814C107.283 198.911 104.411 201.784 104.411 205.314V289.878C104.41 293.947 101.1 297.257 97.0309 297.257Z" fill="#D1E3FF"/>
<path d="M192.439 199.74H140.998V299.799H192.439V199.74Z" fill="#D1E3FF"/>
<path d="M194.366 199.74H190.124V299.799H194.366V199.74Z" fill="#EBF3FF"/>
<path d="M93.4014 207.245H195.68V199.739H93.4014V207.245Z" fill="#EBF3FF"/>
<path d="M92.7885 199.74H41.3472V299.799H92.7885V199.74Z" fill="#D1E3FF"/>
<path d="M94.7159 199.74H90.4736V299.799H94.7159V199.74Z" fill="#EBF3FF"/>
<path d="M76.8574 169.868H124.791L131.738 198.173H83.8044L76.8574 169.868Z" fill="#D1E3FF"/>
<path d="M83.8047 198.173L83.9983 199.738H131.934L131.741 198.173H83.8047Z" fill="#D1E3FF"/>
<path d="M78.333 169.868H126.267L133.214 198.173H85.28L78.333 169.868Z" fill="#EEF9FF"/>
<path d="M86.2934 196.88L79.9814 171.161H125.252L131.565 196.88H86.2934Z" fill="white"/>
<path d="M97.77 198.173L97.9637 199.738H150.748L150.554 198.173H97.77Z" fill="#EEF9FF"/>
<path d="M60.4238 192.606C60.4238 192.606 53.3702 180.447 63.1561 170.767C63.1561 170.767 65.7103 172.431 65.6711 174.669C65.6319 176.908 62.9358 177.474 63.5151 179.341C64.0945 181.209 66.6402 183.041 64.9694 184.585C63.2987 186.13 65.2384 187.504 65.1255 189.395C65.0126 191.288 60.4238 192.606 60.4238 192.606Z" fill="#EEF9FF"/>
<path d="M60.9583 193.717C60.9583 193.717 63.8184 179.954 51.479 173.854C51.479 173.854 49.5801 176.239 50.3226 178.351C51.0658 180.462 53.8028 180.15 53.842 182.105C53.8812 184.06 52.0435 186.602 54.1156 187.54C56.1877 188.479 54.7804 190.395 55.4844 192.154C56.1885 193.913 60.9583 193.717 60.9583 193.717Z" fill="#EEF9FF"/>
<path d="M50.1509 190.667C50.1509 190.667 50.3853 199.739 59.3793 199.739C68.3734 199.739 68.6078 190.667 68.6078 190.667H50.1509Z" fill="#D1E3FF"/>
<path d="M176.98 299.8H175.189L170.075 274.59L169.176 270.174L163.596 242.701H142.201L130.608 299.8H128.817L140.63 241.647C140.714 241.24 141.07 240.949 141.49 240.949H164.314C164.728 240.949 165.09 241.24 165.168 241.647L170.068 265.777L170.967 270.187L176.98 299.8Z" fill="#EBF3FF"/>
<path d="M211.326 299.8H209.536L197.937 242.701H176.548L170.968 270.187L170.076 274.59L164.955 299.799H163.165L169.178 270.173L170.07 265.777L174.971 241.647C175.055 241.239 175.417 240.948 175.831 240.948H198.655C199.075 240.948 199.431 241.239 199.515 241.647L211.326 299.8Z" fill="#EBF3FF"/>
<path d="M158.592 241.824H197.902C205.406 241.824 211.533 235.821 211.686 228.318L213.151 168.575C213.265 162.95 208.737 158.329 203.111 158.329H178.469C173.363 158.329 169.07 162.16 168.492 167.233L158.592 241.824Z" fill="#E3EEFF"/>
<path d="M141.562 234.292H180.031V241.824H138.141C137.057 241.824 136.178 240.945 136.178 239.861V239.676C136.179 236.702 138.589 234.292 141.562 234.292Z" fill="#E3EEFF"/>
<path d="M196 335.208C279.952 335.208 348.009 331.234 348.009 326.331C348.009 321.428 279.952 317.454 196 317.454C112.048 317.454 43.9912 321.428 43.9912 326.331C43.9912 331.234 112.048 335.208 196 335.208Z" fill="#F0F6FF"/>
<path d="M216.73 133.922L217.242 134.357C217.429 134.517 217.642 134.674 217.84 134.834C218.248 135.153 218.661 135.474 219.094 135.777C219.944 136.4 220.849 136.963 221.75 137.528C223.563 138.646 225.47 139.628 227.445 140.441C229.416 141.262 231.434 141.984 233.51 142.51C234.026 142.649 234.553 142.743 235.075 142.862L235.861 143.034C236.025 143.066 235.891 143.048 235.817 143.07C235.726 143.099 235.581 143.149 235.52 143.21C235.448 143.279 235.452 143.276 235.482 143.258C235.553 143.176 235.719 142.888 235.841 142.519C236.102 141.77 236.263 140.76 236.355 139.737C236.447 138.703 236.479 137.624 236.472 136.532C236.458 134.344 236.299 132.11 236.124 129.868C235.939 127.625 235.675 125.375 235.385 123.123C235.116 120.872 234.775 118.607 234.44 116.379L237.386 115.703C238.683 120.188 239.71 124.69 240.497 129.309C240.9 131.617 241.195 133.953 241.357 136.351C241.436 137.551 241.478 138.767 241.443 140.025C241.397 141.288 241.311 142.575 240.925 144.031C240.72 144.759 240.454 145.55 239.864 146.408C239.542 146.84 239.172 147.283 238.618 147.669C238.083 148.046 237.407 148.35 236.744 148.455C236.105 148.585 235.39 148.529 234.991 148.463L234.085 148.318C233.483 148.213 232.874 148.134 232.276 148.008C229.875 147.524 227.51 146.852 225.216 145.985C222.927 145.106 220.714 144.036 218.591 142.799C217.539 142.162 216.504 141.497 215.501 140.766C214.995 140.409 214.502 140.027 214.008 139.638C213.763 139.434 213.522 139.242 213.277 139.024C213.023 138.804 212.813 138.619 212.5 138.32L216.73 133.922Z" fill="#FFBF9D"/>
<path d="M208.209 130.352C216.811 129.184 223.763 136.139 223.763 136.139L215.873 148.309C215.873 148.309 207.42 142.896 205.938 139.214C204.394 135.379 203.795 130.951 208.209 130.352Z" fill="#9FC6FF"/>
<path d="M234.548 117.434L231.692 111.696L239.192 111.633C239.192 111.633 239.343 115.638 237.444 117.939L234.548 117.434Z" fill="#FFBF9D"/>
<path d="M233.023 105.527L238.6 106.519L239.192 111.633L231.692 111.696L233.023 105.527Z" fill="#FFBF9D"/>
<path d="M177.707 319.768L184.737 320.446L189.597 303.945L182.568 303.267L177.707 319.768Z" fill="#FFBF9D"/>
<path d="M133.044 295.373L138.252 300.262L149.494 287.907L144.286 283.018L133.044 295.373Z" fill="#FFBF9D"/>
<path d="M140.656 297.917L136.743 290.866C136.601 290.61 136.307 290.5 136.037 290.604L130.013 292.896C129.388 293.134 129.116 293.936 129.455 294.521C130.862 296.956 131.664 298.06 133.385 301.161C134.443 303.068 136.505 307.443 137.967 310.077C139.397 312.654 142.111 311.406 141.739 310.179C140.067 304.673 140.382 301.609 140.854 299.18C140.938 298.742 140.864 298.292 140.656 297.917Z" fill="#14365B"/>
<path d="M185.561 318.304H177.047C176.737 318.304 176.457 318.519 176.374 318.821L174.523 325.558C174.331 326.257 174.845 326.899 175.562 326.906C178.562 326.932 179.984 326.92 183.729 326.92C186.032 326.92 191.992 326.92 195.173 326.92C198.284 326.92 198.935 323.774 197.648 323.49C191.875 322.213 188.548 320.451 186.767 318.77C186.445 318.467 186.014 318.304 185.561 318.304Z" fill="#14365B"/>
<path d="M189.595 303.949L187.09 312.455H179.858L182.562 303.271L189.595 303.949Z" fill="#EA7063"/>
<path d="M144.282 283.02L149.491 287.911L143.694 294.277L138.485 289.386L144.282 283.02Z" fill="#EA7063"/>
<path d="M216.704 125.489C216.65 119.791 211.494 117.796 211.494 117.796C211.494 117.796 217.945 105.579 214.615 97.4769C211.285 89.3758 200.37 87.938 196.898 91.7278C190.813 91.466 188.872 100.221 188.872 100.221C188.872 100.221 183.78 101.07 182.404 104.779C181.028 108.488 185.213 112.668 185.213 112.668C185.213 112.668 179.398 113.483 177.258 117.926C175.119 122.369 176.43 128.348 182.861 133.475C192.204 140.923 209.386 131.58 209.386 131.58C209.386 131.58 216.766 132.039 216.704 125.489Z" fill="#0F264C"/>
<path d="M215.569 131.157C215.569 131.157 218.686 132.528 208.233 173.895C196.709 172.899 184.799 171.868 179.191 171.383C180.701 159.606 181.344 152.319 177.793 127.573C177.793 127.573 183.992 126.776 190.266 127.015C195.173 127.202 199.191 127.392 203.453 128.156C209.073 129.163 215.569 131.157 215.569 131.157Z" fill="#9FC6FF"/>
<path d="M208.082 129.133C206.577 128.772 204.985 128.427 203.456 128.153C199.191 127.392 195.177 127.204 190.269 127.016C188.756 126.961 187.243 126.961 185.824 126.992L186.796 128.843C186.969 129.172 191.108 136.894 198.972 141.277L201.136 142.484L203.151 141.05C208.231 137.435 208.984 132.716 208.082 129.133Z" fill="white"/>
<path d="M192.858 112.28C193.323 116.595 193.48 124.441 190.267 127.016C190.267 127.016 193.941 133.987 200.883 137.854C207.035 133.477 203.454 128.157 203.454 128.157C198.821 126.618 199.247 123.117 200.356 119.892L192.858 112.28Z" fill="#FFBF9D"/>
<path d="M195.913 115.385L200.351 119.888C200.086 120.651 199.863 121.429 199.742 122.194C197.956 121.776 195.372 119.921 195.344 118.012C195.331 117.059 195.721 115.812 195.913 115.385Z" fill="#EA7063"/>
<path d="M192.674 102.475C191.825 109.547 191.314 112.523 194.191 116.759C198.517 123.129 207.39 122.626 210.335 115.949C212.986 109.94 213.929 99.3836 207.592 95.3491C201.348 91.3734 193.523 95.4024 192.674 102.475Z" fill="#FFBF9D"/>
<path d="M198.15 93.7817C203.6 95.1906 198.215 111.77 189.493 106.959C189.493 106.959 189.885 99.9597 192.302 96.9875C194.72 94.0146 198.15 93.7817 198.15 93.7817Z" fill="#0F264C"/>
<path d="M197.562 94.7007C199.914 98.5227 217.359 105.775 211.495 97.5427C205.63 89.3107 197.562 94.7007 197.562 94.7007Z" fill="#0F264C"/>
<path d="M190.434 108.587C190.313 110.059 190.883 111.449 191.682 112.362C192.884 113.736 194.481 112.901 194.98 111.244C195.429 109.754 195.345 107.242 193.737 106.477C192.153 105.724 190.573 106.904 190.434 108.587Z" fill="#FFBF9D"/>
<path d="M208.232 173.895C208.232 173.895 218.058 217.361 211.499 248.005C207.107 268.528 191.263 309.989 191.263 309.989L178.875 309.67C178.875 309.67 190.868 266.161 193.348 249.05C197.59 219.781 186.966 172.056 186.966 172.056L208.232 173.895Z" fill="#0F264C"/>
<path d="M196.902 182.672L190.708 192.441C192.284 202.57 193.852 215.239 194.252 227.43C202.962 211.837 198.839 190.927 196.902 182.672Z" fill="#0A1B35"/>
<path d="M192.283 310.631L176.98 310.24L177.866 305.539L194.573 306.33L192.283 310.631Z" fill="#9FC6FF"/>
<path d="M201.883 173.432C201.883 173.432 196.119 219.529 183.624 244.695C173.531 265.022 146.601 293.958 146.601 293.958L139.715 286.864C139.715 286.864 157.905 255.416 165.407 241.913C183.798 208.804 168.768 183.539 179.192 171.382L201.883 173.432Z" fill="#0F264C"/>
<path d="M147.297 294.907L138.412 286.245L141.359 282.234L151.043 292.246L147.297 294.907Z" fill="#9FC6FF"/>
<path d="M178.904 169.642L177.37 172.128C177.25 172.321 177.471 172.547 177.807 172.576L208.263 175.21C208.525 175.233 208.753 175.123 208.784 174.96L209.271 172.383C209.304 172.204 209.09 172.033 208.804 172.008L179.395 169.464C179.179 169.446 178.98 169.517 178.904 169.642Z" fill="#0053CC"/>
<path d="M182.569 173.271L181.781 173.203C181.624 173.19 181.511 173.098 181.531 173.001L182.193 169.656C182.212 169.558 182.357 169.489 182.513 169.503L183.301 169.571C183.458 169.584 183.571 169.676 183.551 169.774L182.89 173.119C182.87 173.216 182.726 173.285 182.569 173.271Z" fill="#0F264C"/>
<path d="M206.026 175.3L205.238 175.232C205.081 175.218 204.968 175.127 204.988 175.029L205.649 171.684C205.669 171.586 205.813 171.517 205.97 171.53L206.758 171.599C206.915 171.612 207.028 171.704 207.008 171.801L206.346 175.146C206.327 175.245 206.182 175.314 206.026 175.3Z" fill="#0F264C"/>
<path d="M194.297 174.285L193.509 174.217C193.352 174.204 193.239 174.112 193.259 174.015L193.921 170.669C193.94 170.571 194.085 170.502 194.241 170.516L195.029 170.584C195.186 170.597 195.299 170.689 195.279 170.786L194.618 174.132C194.598 174.23 194.454 174.299 194.297 174.285Z" fill="#0F264C"/>
<path d="M202.925 106.369C202.821 106.938 203.039 107.456 203.41 107.523C203.782 107.59 204.168 107.184 204.273 106.615C204.377 106.046 204.159 105.529 203.787 105.461C203.416 105.393 203.029 105.8 202.925 106.369Z" fill="#0F264C"/>
<path d="M209.362 107.546C209.258 108.115 209.475 108.632 209.847 108.7C210.22 108.768 210.605 108.361 210.71 107.792C210.814 107.223 210.596 106.705 210.224 106.638C209.852 106.57 209.466 106.977 209.362 107.546Z" fill="#0F264C"/>
<path d="M210.055 106.639L211.495 106.495C211.495 106.495 210.597 107.435 210.055 106.639Z" fill="#0F264C"/>
<path d="M207.482 108.213C207.482 108.213 208.001 110.841 208.848 112.218C207.968 112.783 206.749 112.229 206.749 112.229L207.482 108.213Z" fill="#FF9A6C"/>
<path d="M204.364 114.079C204.356 114.079 204.347 114.078 204.339 114.077C201.674 113.59 200.788 111.542 200.752 111.455C200.722 111.383 200.756 111.3 200.828 111.27C200.898 111.239 200.982 111.273 201.013 111.345C201.021 111.365 201.881 113.34 204.39 113.798C204.467 113.812 204.518 113.886 204.505 113.962C204.49 114.031 204.432 114.079 204.364 114.079Z" fill="#0F264C"/>
<path d="M201.393 101.933C201.308 101.933 201.223 101.894 201.169 101.821C201.074 101.697 201.097 101.52 201.221 101.425C202.691 100.302 204.146 100.8 204.21 100.822C204.357 100.874 204.433 101.035 204.382 101.182C204.33 101.329 204.169 101.404 204.022 101.355C203.973 101.339 202.784 100.943 201.564 101.874C201.513 101.914 201.452 101.933 201.393 101.933Z" fill="#0F264C"/>
<path d="M212.995 105.384C212.914 105.384 212.832 105.349 212.776 105.281C211.797 104.086 210.52 104.21 210.506 104.211C210.352 104.226 210.212 104.115 210.194 103.961C210.178 103.805 210.289 103.666 210.444 103.649C210.508 103.643 212.041 103.492 213.214 104.923C213.313 105.043 213.295 105.221 213.174 105.32C213.121 105.364 213.059 105.384 212.995 105.384Z" fill="#0F264C"/>
<path d="M179.998 137.963C178.8 140.407 177.504 142.561 176.115 144.765C174.703 146.931 173.211 149.045 171.599 151.083C169.999 153.129 168.24 155.061 166.392 156.922C165.432 157.824 164.499 158.746 163.473 159.589L162.718 160.234L162.53 160.394L162.282 160.588C162.11 160.717 161.945 160.852 161.76 160.967C161.048 161.45 160.266 161.846 159.462 162.121C157.844 162.68 156.195 162.769 154.688 162.645C153.178 162.506 151.771 162.165 150.45 161.718C147.813 160.813 145.448 159.58 143.246 158.167C138.844 155.328 134.962 152.05 131.378 148.335L133.459 146.143C135.332 147.648 137.314 149.15 139.332 150.506C141.337 151.893 143.397 153.183 145.508 154.298C147.62 155.395 149.764 156.396 151.905 156.969C154.029 157.562 156.152 157.664 157.618 157.047C158.407 156.731 158.806 156.386 159.786 155.445C160.66 154.663 161.465 153.787 162.292 152.943C163.899 151.192 165.39 149.323 166.85 147.421C168.301 145.509 169.646 143.504 170.928 141.461C171.578 140.446 172.202 139.414 172.81 138.375C173.397 137.344 174.012 136.253 174.521 135.279L179.998 137.963Z" fill="#FFBF9D"/>
<path d="M135.38 147.1L132.588 141.331L127.949 147.225C127.949 147.225 131.025 149.795 134.007 149.699L135.38 147.1Z" fill="#FFBF9D"/>
<path d="M129.54 139.649L126.912 144.667L127.95 147.224L132.588 141.33L129.54 139.649Z" fill="#FFBF9D"/>
<path d="M177.794 127.573C174.234 128.202 169.245 138.414 169.245 138.414L179.016 147.251C179.016 147.251 185.358 138.746 184.978 134.107C184.653 130.168 182.329 126.771 177.794 127.573Z" fill="#9FC6FF"/>
<path d="M142.029 301.707C141.937 301.707 141.845 301.691 141.753 301.66C140.902 301.374 140.343 299.798 140.086 298.883C140.07 298.829 140.089 298.77 140.133 298.735C140.177 298.699 140.238 298.693 140.287 298.72C140.547 298.856 142.821 300.072 142.895 300.97C142.907 301.107 142.874 301.305 142.653 301.472C142.445 301.628 142.237 301.707 142.029 301.707ZM140.454 299.134C140.849 300.395 141.36 301.23 141.842 301.393C142.051 301.464 142.26 301.416 142.481 301.247C142.609 301.15 142.617 301.056 142.612 300.993C142.568 300.443 141.234 299.576 140.454 299.134Z" fill="#407BFF"/>
<path d="M142.38 299.49C141.573 299.49 140.583 299.232 140.148 298.967C140.104 298.94 140.079 298.893 140.08 298.843C140.081 298.793 140.109 298.746 140.153 298.723C140.23 298.68 142.03 297.69 143.001 298.034C143.254 298.124 143.433 298.293 143.531 298.538C143.686 298.917 143.517 299.138 143.403 299.235C143.186 299.417 142.809 299.49 142.38 299.49ZM140.532 298.845C141.303 299.174 142.799 299.376 143.218 299.019C143.289 298.96 143.358 298.863 143.269 298.644C143.2 298.476 143.081 298.364 142.906 298.302C142.246 298.067 141.044 298.592 140.532 298.845Z" fill="#407BFF"/>
<path d="M189.339 319.681C188.521 319.681 187.63 319.523 187.013 319.386C186.955 319.372 186.91 319.324 186.904 319.263C186.897 319.204 186.929 319.146 186.984 319.12C187.334 318.955 190.421 317.527 191.201 318.055C191.3 318.123 191.416 318.253 191.403 318.493C191.384 318.825 191.242 319.093 190.982 319.29C190.596 319.581 189.99 319.681 189.339 319.681ZM187.499 319.197C188.417 319.369 190.113 319.591 190.812 319.064C191.005 318.917 191.107 318.725 191.121 318.476C191.128 318.362 191.083 318.316 191.043 318.29C190.606 317.991 188.781 318.632 187.499 319.197Z" fill="#407BFF"/>
<path d="M187.045 319.39C187.012 319.39 186.98 319.378 186.953 319.356C186.913 319.321 186.895 319.268 186.907 319.216C186.937 319.086 187.641 316.037 189.314 316.235C189.733 316.285 189.848 316.493 189.87 316.659C189.975 317.434 188.027 318.998 187.097 319.379C187.081 319.386 187.063 319.39 187.045 319.39ZM189.162 316.508C188.093 316.508 187.467 318.281 187.26 318.991C188.267 318.464 189.659 317.193 189.591 316.697C189.587 316.661 189.572 316.551 189.281 316.516C189.24 316.511 189.201 316.508 189.162 316.508Z" fill="#407BFF"/>
<path d="M203.618 105.463L205.058 105.318C205.058 105.318 204.16 106.258 203.618 105.463Z" fill="#0F264C"/>
<path opacity="0.6" d="M144.641 60.7803L121.663 209.302L250.96 229.306L273.938 80.7833L144.641 60.7803ZM197.764 145.276C181.2 142.713 169.846 127.203 172.409 110.639C174.973 94.0681 190.482 82.7205 207.046 85.2834C223.616 87.8471 234.965 103.35 232.401 119.921C229.839 136.485 214.334 147.84 197.764 145.276Z" fill="#0053CC"/>
<path opacity="0.3" d="M247.051 223.664L246.858 223.634L117.367 203.601L117.396 203.407L140.404 54.6919L140.597 54.7217L270.088 74.7545L270.059 74.9481L247.051 223.664ZM117.814 203.273L246.724 223.217L269.641 75.0822L140.731 55.1388L117.814 203.273Z" fill="#0053CC"/>
<path d="M202.424 146.812C200.827 146.812 199.21 146.691 197.584 146.439C180.404 143.78 168.589 127.64 171.246 110.46C172.535 102.136 176.986 94.8117 183.782 89.8381C190.577 84.8644 198.903 82.8338 207.225 84.1219C224.406 86.7805 236.22 102.92 233.563 120.101C231.157 135.655 217.698 146.812 202.424 146.812ZM197.944 144.114C213.84 146.575 228.779 135.64 231.239 119.741C233.698 103.843 222.764 88.9067 206.865 86.4465C199.164 85.2548 191.459 87.134 185.171 91.7361C178.882 96.339 174.763 103.117 173.571 110.819C171.112 126.718 182.045 141.654 197.944 144.114Z" fill="white"/>
<path d="M172.764 154.474L144.284 150.067L143.294 156.468L171.774 160.874L172.764 154.474Z" fill="#9FC6FF"/>
<path d="M195.779 158.035L176.511 155.054L175.521 161.454L194.789 164.435L195.779 158.035Z" fill="#9FC6FF"/>
<path d="M245.269 178.969L142.277 163.034L141.287 169.434L244.278 185.369L245.269 178.969Z" fill="white"/>
<path d="M191.385 184.565L140.172 176.641L139.182 183.041L190.395 190.965L191.385 184.565Z" fill="white"/>
<path d="M234.405 191.22L200.147 185.92L199.157 192.32L233.415 197.621L234.405 191.22Z" fill="white"/>
<path d="M220.398 202.987L138.067 190.248L137.077 196.648L219.408 209.387L220.398 202.987Z" fill="white"/>
<path d="M275.32 229.305H274.536C274.536 227.354 274.295 225.412 273.823 223.535L274.582 223.344C275.072 225.284 275.32 227.289 275.32 229.305ZM272.247 219.175C270.531 215.585 267.909 212.456 264.662 210.13L265.118 209.492C268.472 211.895 271.181 215.128 272.954 218.837L272.247 219.175Z" fill="#9FC6FF"/>
<path d="M250.96 207.69C239.022 207.69 229.345 217.368 229.345 229.306C229.345 241.244 239.022 250.922 250.96 250.922C262.898 250.922 272.576 241.244 272.576 229.306C272.576 217.368 262.898 207.69 250.96 207.69ZM250.96 248.118C240.571 248.118 232.148 239.696 232.148 229.306C232.148 218.917 240.571 210.494 250.96 210.494C261.35 210.494 269.772 218.917 269.772 229.306C269.772 239.696 261.35 248.118 250.96 248.118Z" fill="#9FC6FF"/>
<path opacity="0.8" d="M250.961 248.118C261.35 248.118 269.773 239.696 269.773 229.306C269.773 218.917 261.35 210.494 250.961 210.494C240.571 210.494 232.148 218.917 232.148 229.306C232.148 239.696 240.571 248.118 250.961 248.118Z" fill="#0053CC"/>
<path d="M248.034 241.208L236.997 230.171L239.768 227.399L248.034 235.665L262.152 221.547L264.923 224.318L248.034 241.208Z" fill="white"/>
</svg>
